<?xml version="1.0" encoding="UTF-8"?>
<svg version="1.1" xmlns="http://www.w3.org/2000/svg" width="1536" height="1024">
<path d="M0 0 C506.88 0 1013.76 0 1536 0 C1536 337.92 1536 675.84 1536 1024 C1029.12 1024 522.24 1024 0 1024 C0 686.08 0 348.16 0 0 Z " fill="#131313" transform="translate(0,0)"/>
<path d="M0 0 C75.24 0 150.48 0 228 0 C228.639375 34.505625 229.27875 69.01125 229.9375 104.5625 C230.36083618 120.8193103 230.36083618 120.8193103 230.79272461 137.40454102 C230.93273926 150.78503418 230.93273926 150.78503418 230.95875549 157.07725525 C230.98731365 161.41520359 231.10192586 165.74103949 231.27284241 170.07566833 C232.77384507 209.84349784 232.77384507 209.84349784 218.90872031 225.25004309 C212.23823992 232.18364243 204.95929441 238.58385249 197 244 C196.34 244 195.68 244 195 244 C194.6672406 244.81975311 194.6672406 244.81975311 194.32775879 245.65606689 C192.58494532 248.7327087 190.2453747 251.03341347 187.75585938 253.50292969 C187.22233353 254.03996017 186.68880768 254.57699066 186.13911438 255.1302948 C184.37898231 256.89921071 182.61165782 258.6607329 180.84375 260.421875 C179.61799315 261.64897906 178.39253333 262.87637988 177.1673584 264.10406494 C174.6016291 266.67274063 172.03232206 269.23776892 169.46044922 271.80029297 C166.15802715 275.0912968 162.86469605 278.39122921 159.57396698 281.69392014 C157.04691581 284.22818244 154.51514018 286.75768146 151.98188782 289.28574371 C150.76513172 290.50116249 149.54986823 291.71807737 148.33610535 292.93648529 C146.64356395 294.63408224 144.94478542 296.32517489 143.24414062 298.01464844 C142.74018265 298.52265488 142.23622467 299.03066132 141.71699524 299.55406189 C138.22853203 303 138.22853203 303 136 303 C136 303.66 136 304.32 136 305 C134.6015625 306.375 134.6015625 306.375 132.625 308 C131.58061768 308.91894043 131.58061768 308.91894043 130.51513672 309.85644531 C128 312 128 312 125.40039062 313.83105469 C120.73352504 317.55654284 117.9464348 320.53862983 117.09912109 326.47460938 C116.65149382 332.06483854 116.77081152 337.64813453 116.875 343.25 C116.87629224 345.31600164 116.872881 347.38201107 116.86499023 349.44799805 C116.85554774 354.85995131 116.90386915 360.26979385 116.96636963 365.68133545 C117.04391126 373.33318897 117.04179279 380.98551467 117.04931641 388.63769531 C117.0535526 392.70907678 117.07944369 396.77943858 117.12255859 400.85058594 C117.13514501 402.69856734 117.14768039 404.5465491 117.16015625 406.39453125 C117.17370651 407.24124893 117.18725677 408.08796661 117.20121765 408.96034241 C117.20981027 410.97466026 117.11466452 412.98893006 117 415 C114.62984964 417.37015036 114.18459517 417.25068599 110.96954823 417.25447559 C110.1213847 417.26030779 109.27322116 417.26613998 108.39935571 417.27214891 C107.46213086 417.26836958 106.524906 417.26459026 105.5592804 417.26069641 C104.5676847 417.26452196 103.57608901 417.26834751 102.55444497 417.27228898 C99.20982771 417.28266154 95.86538078 417.27861862 92.52075195 417.2746582 C90.13103068 417.27900265 87.7413108 417.2841849 85.35159302 417.29014587 C79.51811524 417.30218594 73.68468015 417.30468235 67.85119466 417.30234561 C63.10403512 417.30056356 58.35688954 417.3023097 53.60973167 417.30657005 C52.93436999 417.30716524 52.25900831 417.30776043 51.56318113 417.30837366 C50.19108516 417.30958543 48.8189892 417.31079957 47.44689324 417.31201603 C34.56220338 417.3229058 21.67753965 417.32072388 8.79284831 417.31463119 C-2.96923568 417.30947597 -14.73123649 417.32067787 -26.49330404 417.33972941 C-38.58119028 417.35915756 -50.66903729 417.36735414 -62.75693923 417.36360615 C-69.53871345 417.36169968 -76.32041714 417.36412615 -83.10217857 417.37832069 C-89.49204749 417.39094972 -95.88175134 417.38890693 -102.27161789 417.37590981 C-104.60836532 417.37355449 -106.94512454 417.37624092 -109.28185844 417.38453293 C-121.56973347 417.42496634 -133.06896286 417.14505361 -145 414 C-145.80381953 413.7974677 -146.60763906 413.5949354 -147.43581676 413.38626575 C-161.23000114 409.70690135 -172.66934366 403.67284806 -184 395 C-184.7321875 394.484375 -185.464375 393.96875 -186.21875 393.4375 C-191.26406495 389.86696942 -195.12616942 385.8003732 -199 381 C-199.57621094 380.29875 -200.15242188 379.5975 -200.74609375 378.875 C-209.27631238 368.23597454 -216.01867307 357.04750074 -220 344 C-220.38671875 342.75669922 -220.38671875 342.75669922 -220.78125 341.48828125 C-221.54422716 338.99716082 -222.29448733 336.50807908 -223 334 C-223.33972336 332.90640167 -223.67944672 331.81280334 -224.02946472 330.68606567 C-225.51828589 324.6523494 -225.28673347 318.54953266 -225.2746582 312.37060547 C-225.27901226 311.002993 -225.2841977 309.63538296 -225.29014587 308.26777649 C-225.30347811 304.57111936 -225.30412062 300.87456486 -225.30158257 297.17788839 C-225.30050812 294.07959403 -225.30540873 290.98132003 -225.310188 287.88303006 C-225.32126497 280.56328041 -225.32173194 273.24358208 -225.31567383 265.92382812 C-225.30964615 258.40532572 -225.32191844 250.88701103 -225.3432439 243.36854064 C-225.36094202 236.88752272 -225.36684808 230.40656408 -225.36360615 223.92552292 C-225.36180489 220.06640461 -225.36431169 216.20741997 -225.37832069 212.34832382 C-225.39102753 208.7120397 -225.38883562 205.07604443 -225.37590981 201.43976402 C-225.37246958 199.49352111 -225.38362887 197.54726884 -225.39547729 195.60105896 C-225.28264109 176.39241649 -219.26949106 159.51253494 -210 143 C-209.32227405 141.67225388 -208.64920842 140.34192051 -208 139 C-207.34 139 -206.68 139 -206 139 C-205.7525 138.27425781 -205.505 137.54851562 -205.25 136.80078125 C-203.87572546 133.72154736 -202.25344071 131.68533961 -200 129.1875 C-198.948125 128.00220703 -198.948125 128.00220703 -197.875 126.79296875 C-196 125 -196 125 -194 125 C-193.505 123.515 -193.505 123.515 -193 122 C-192.34 122 -191.68 122 -191 122 C-190.75765625 121.40703125 -190.5153125 120.8140625 -190.265625 120.203125 C-184.01958187 109.33038325 -163.34177843 101.83898034 -152 98 C-151.09121094 97.69191406 -150.18242188 97.38382812 -149.24609375 97.06640625 C-139.82175381 94.05925045 -130.71063806 93.84123657 -120.8828125 93.79467773 C-119.5844194 93.78477814 -118.28602631 93.77487854 -116.94828796 93.76467896 C-113.40963758 93.7378043 -109.87097409 93.71670113 -106.33227921 93.69667697 C-102.62603663 93.67470894 -98.91983362 93.64737351 -95.21362305 93.62062073 C-88.20509126 93.57083933 -81.19653734 93.52584693 -74.18796253 93.48259836 C-64.71041249 93.42383532 -55.2329146 93.35762725 -45.75541115 93.29184818 C-30.83697598 93.18850134 -15.9184956 93.09506091 -1 93 C-0.67 62.31 -0.34 31.62 0 0 Z " fill="#F7461F" transform="translate(670,282)"/>
<path d="M0 0 C74.58 0 149.16 0 226 0 C226.61875 34.52625 227.2375 69.0525 227.875 104.625 C228.28468018 120.89546631 228.28468018 120.89546631 228.70263672 137.49462891 C228.83813477 150.87963867 228.83813477 150.87963867 228.86331177 157.17269897 C228.89096219 161.51368855 229.0019497 165.84335731 229.16726685 170.1812439 C230.61983696 209.99746235 230.61983696 209.99746235 217.20471823 224.95404518 C210.76695779 231.65426329 203.72218282 237.82108486 196 243 C195.34 243 194.68 243 194 243 C193.6672406 243.81975311 193.6672406 243.81975311 193.32775879 244.65606689 C191.58494532 247.7327087 189.2453747 250.03341347 186.75585938 252.50292969 C186.22233353 253.03996017 185.68880768 253.57699066 185.13911438 254.1302948 C183.37898231 255.89921071 181.61165782 257.6607329 179.84375 259.421875 C178.61799315 260.64897906 177.39253333 261.87637988 176.1673584 263.10406494 C173.6016291 265.67274063 171.03232206 268.23776892 168.46044922 270.80029297 C165.15802715 274.0912968 161.86469605 277.39122921 158.57396698 280.69392014 C156.04691581 283.22818244 153.51514018 285.75768146 150.98188782 288.28574371 C149.76513172 289.50116249 148.54986823 290.71807737 147.33610535 291.93648529 C145.64356395 293.63408224 143.94478542 295.32517489 142.24414062 297.01464844 C141.74018265 297.52265488 141.23622467 298.03066132 140.71699524 298.55406189 C137.22853203 302 137.22853203 302 135 302 C135 302.66 135 303.32 135 304 C132.69 304.66 130.38 305.32 128 306 C128 306.66 128 307.32 128 308 C127.34 308 126.68 308 126 308 C125.731875 308.639375 125.46375 309.27875 125.1875 309.9375 C124 312 124 312 121 313 C121 313.66 121 314.32 121 315 C117.91190305 316.76462683 116.76687864 317 113 317 C113.875 311.25 113.875 311.25 115 309 C114.01 308.67 113.02 308.34 112 308 C111.97665866 281.07963654 111.95901474 254.15927458 111.94818783 227.23890305 C111.9430275 214.73983167 111.9359898 202.24076657 111.92456055 189.74169922 C111.91460569 178.849858 111.90814465 167.95802134 111.90591151 157.0661757 C111.90460577 151.29693683 111.90152851 145.52771097 111.89426994 139.75847626 C111.88749711 134.33148915 111.88538564 128.90452046 111.88689232 123.47752953 C111.88661656 121.48286273 111.88461892 119.48819533 111.88079453 117.49353218 C111.8758376 114.77551149 111.87700917 112.0575608 111.87974548 109.33953857 C111.87537622 108.14887618 111.87537622 108.14887618 111.87091869 106.93415999 C111.88062916 103.37864847 112.13054982 100.47780073 113 97 C77.03 97 41.06 97 4 97 C4 129.67 4 162.34 4 196 C-36.59 196 -77.18 196 -119 196 C-119 195.67 -119 195.34 -119 195 C-59.105 194.505 -59.105 194.505 2 194 C2.33 161.66 2.66 129.32 3 96 C2.34 96 1.68 96 1 96 C1 95.34 1 94.68 1 94 C0.34 93.67 -0.32 93.34 -1 93 C-0.67 62.31 -0.34 31.62 0 0 Z " fill="#FD5D1D" transform="translate(671,283)"/>
<path d="M0 0 C34.98 0 69.96 0 106 0 C106 70.29 106 140.58 106 213 C29.44 213 -47.12 213 -126 213 C-126 175.38 -126 137.76 -126 99 C-84.42 99 -42.84 99 0 99 C0 66.33 0 33.66 0 0 Z " fill="#171514" transform="translate(675,380)"/>
<path d="M0 0 C0.66 0 1.32 0 2 0 C2 75.24 2 150.48 2 228 C0.02 228.99 0.02 228.99 -2 230 C-2 230.66 -2 231.32 -2 232 C-3.07930912 232.00146656 -4.15861824 232.00293312 -5.2706337 232.00444412 C-31.60683637 232.04113863 -57.94291284 232.10071798 -84.27901077 232.18390274 C-97.01527348 232.22360868 -109.75147515 232.25604395 -122.48779297 232.27099609 C-133.5966691 232.28405651 -144.70541045 232.31113257 -155.81421065 232.35461307 C-161.68906908 232.37712945 -167.5637619 232.39291661 -173.4386673 232.39188385 C-178.98404425 232.3911314 -184.52905647 232.40931443 -190.07433891 232.44116783 C-192.09451823 232.44958979 -194.11473883 232.45147014 -196.13492775 232.44580269 C-208.80735096 232.41502516 -220.48040785 233.6789578 -232.83163977 236.52831221 C-236.2016341 237.2613939 -239.5927836 237.78034447 -243 238.3125 C-252.70182762 240.11999054 -261.80182863 243.4837509 -271 247 C-272.16426514 247.44182617 -272.16426514 247.44182617 -273.35205078 247.89257812 C-281.76008983 251.11659138 -289.61153952 254.66376439 -297.30859375 259.38671875 C-299.82423337 260.89464206 -302.35139323 262.18245495 -305 263.4375 C-311.68579602 266.69356949 -318.71950326 270.71950326 -324 276 C-324.99 276 -325.98 276 -327 276 C-327 276.66 -327 277.32 -327 278 C-328.33724198 278.87976446 -329.67818959 279.7541387 -331.03125 280.609375 C-334.4405916 283.01756073 -337.4271105 285.90193462 -340.5 288.71875 C-342.59273307 290.62836893 -344.71689607 292.47811166 -346.875 294.3125 C-360.90750165 306.58739538 -372.25717665 320.83366115 -383 336 C-383.99 335.67 -384.98 335.34 -386 335 C-385.21654285 333.82780457 -384.42297164 332.66236332 -383.625 331.5 C-383.18414062 330.8503125 -382.74328125 330.200625 -382.2890625 329.53125 C-381.65097656 328.77328125 -381.65097656 328.77328125 -381 328 C-380.34 328 -379.68 328 -379 328 C-378.79375 327.34 -378.5875 326.68 -378.375 326 C-375.06092068 318.76928147 -369.27367689 312.86657547 -364 307 C-363.21238281 306.10796875 -362.42476562 305.2159375 -361.61328125 304.296875 C-348.79986228 289.93328743 -348.79986228 289.93328743 -343 288 C-343 287.34 -343 286.68 -343 286 C-341.68 285.67 -340.36 285.34 -339 285 C-339 284.34 -339 283.68 -339 283 C-337.07412421 281.36860063 -335.15673283 279.86276775 -333.125 278.375 C-332.56941406 277.95476562 -332.01382813 277.53453125 -331.44140625 277.1015625 C-327.26235288 274 -327.26235288 274 -325 274 C-325 273.34 -325 272.68 -325 272 C-323.3203125 270.7109375 -323.3203125 270.7109375 -321.125 269.375 C-320.40570312 268.92898438 -319.68640625 268.48296875 -318.9453125 268.0234375 C-317 267 -317 267 -315 267 C-315 266.34 -315 265.68 -315 265 C-313.865625 264.443125 -312.73125 263.88625 -311.5625 263.3125 C-308.66135181 261.86444864 -305.81864096 260.3521177 -303 258.75 C-287.6912129 250.21894941 -271.76157504 242.4548408 -254.57421875 238.609375 C-252.2118116 238.05014053 -250.0255512 237.33678806 -247.75 236.5 C-241.05034286 234.19435223 -233.98852592 233.06786638 -227 232 C-225.40140798 231.75236782 -225.40140798 231.75236782 -223.77052116 231.49973297 C-212.5249201 229.92025436 -201.46450423 229.70601415 -190.12158203 229.71289062 C-188.07322929 229.7068525 -186.024879 229.69992479 -183.97653198 229.69218445 C-179.60057992 229.67740643 -175.22467261 229.6685747 -170.84869766 229.66447449 C-163.93260461 229.65771689 -157.01660725 229.6359174 -150.10055542 229.61193848 C-134.19246559 229.55902894 -118.28434654 229.52536486 -102.37620544 229.49217987 C-87.74954026 229.46150421 -73.12291692 229.42677489 -58.4963063 229.37586927 C-51.61585686 229.35249077 -44.73547551 229.33877329 -37.85499024 229.33237457 C-33.59163921 229.32645778 -29.32834407 229.31238288 -25.06502151 229.29603004 C-23.08240989 229.29013095 -21.09978466 229.28768657 -19.11716461 229.28886986 C-16.42109872 229.29002079 -13.72535031 229.27907993 -11.02932739 229.26501465 C-9.84046092 229.26996311 -9.84046092 229.26996311 -8.62757695 229.27501154 C-4.35141278 229.39307854 -4.35141278 229.39307854 -1 227 C-0.79409855 224.01726138 -0.71494603 221.12626888 -0.7215271 218.14169312 C-0.7128385 216.74868026 -0.7128385 216.74868026 -0.70397437 215.32752573 C-0.68688636 212.1966688 -0.68409032 209.06595849 -0.68115234 205.93505859 C-0.67186023 203.69833511 -0.66169265 201.46161512 -0.65071106 199.22489929 C-0.62331611 193.13637635 -0.60823361 187.04787665 -0.59528303 180.95930815 C-0.57969389 174.60245298 -0.55289034 168.24564561 -0.5272522 161.88882446 C-0.48571989 151.21398182 -0.45114682 140.53913926 -0.421875 129.86425781 C-0.39170244 118.86781948 -0.35735816 107.87140726 -0.31738281 96.875 C-0.31492126 96.19747745 -0.31245972 95.5199549 -0.30992357 94.82190137 C-0.29754922 91.42305821 -0.28509264 88.02421536 -0.27259517 84.62537265 C-0.16897983 56.4169514 -0.07994004 28.20849752 0 0 Z " fill="#212121" transform="translate(875,0)"/>
<path d="M0 0 C-0.66 1.32 -1.32 2.64 -2 4 C-2.66 4 -3.32 4 -4 4 C-4 4.66 -4 5.32 -4 6 C-5.26220703 7.23657227 -5.26220703 7.23657227 -7.1328125 8.75390625 C-11.1656195 12.1815256 -14.90071675 15.8282172 -18.6171875 19.58984375 C-19.49809052 20.47925156 -19.49809052 20.47925156 -20.39678955 21.3866272 C-22.85301308 23.86994845 -25.30501585 26.35736402 -27.75292969 28.84887695 C-29.557546 30.68350719 -31.36818085 32.5120205 -33.1796875 34.33984375 C-34.01244705 35.19279274 -34.01244705 35.19279274 -34.86203003 36.06297302 C-36.20386707 37.41362049 -37.59754741 38.71240459 -39 40 C-39.66 40 -40.32 40 -41 40 C-41.22171875 40.55945313 -41.4434375 41.11890625 -41.671875 41.6953125 C-43.41656695 44.72286618 -45.6259958 46.56671823 -48.25 48.875 C-53.88614873 53.88850013 -59.21165181 59.15660725 -64.45410156 64.57958984 C-65.93356006 66.08904307 -67.46269055 67.5495083 -69 69 C-69.66 69 -70.32 69 -71 69 C-71.2165625 69.54140625 -71.433125 70.0828125 -71.65625 70.640625 C-73.46499997 73.81645344 -75.91723799 76.20728081 -78.5 78.75 C-78.99886719 79.25660156 -79.49773437 79.76320313 -80.01171875 80.28515625 C-83.74658861 84 -83.74658861 84 -86 84 C-86 84.66 -86 85.32 -86 86 C-86.66 86 -87.32 86 -88 86 C-88 86.66 -88 87.32 -88 88 C-88.66 88 -89.32 88 -90 88 C-90 88.66 -90 89.32 -90 90 C-90.66 90 -91.32 90 -92 90 C-92 90.66 -92 91.32 -92 92 C-93.2578125 93.234375 -93.2578125 93.234375 -95.125 94.75 C-101.23835116 99.93377183 -106.78027464 105.69919257 -112.41040039 111.39477539 C-113.87510922 112.8738816 -115.34736768 114.34550152 -116.8203125 115.81640625 C-118.12986151 117.12830212 -119.42439387 118.45583045 -120.6875 119.8125 C-122 121 -122 121 -124 121 C-124 121.66 -124 122.32 -124 123 C-125.3984375 124.375 -125.3984375 124.375 -127.375 126 C-131.82921409 129.76222012 -135.85683532 133.86058282 -139.8984375 138.05859375 C-142 140 -142 140 -144 140 C-144.2475 140.61875 -144.495 141.2375 -144.75 141.875 C-146.20628639 144.35068687 -147.37812506 144.95125002 -150 146 C-150 146.66 -150 147.32 -150 148 C-151.3984375 149.375 -151.3984375 149.375 -153.375 151 C-159.14715987 155.8975902 -164.51834355 161.2492694 -169.66796875 166.796875 C-171 168 -171 168 -173 168 C-173.33 168.99 -173.66 169.98 -174 171 C-174.66 171 -175.32 171 -176 171 C-176.66 172.32 -177.32 173.64 -178 175 C-178.66 175 -179.32 175 -180 175 C-180.20625 175.556875 -180.4125 176.11375 -180.625 176.6875 C-182.17141577 179.28829016 -184.07183562 180.84784486 -186.421875 182.71875 C-189.87058544 185.51869313 -192.77983074 188.69619241 -195.5 192.1875 C-198.03887021 195.04372899 -199.51537444 195.74166299 -203 197 C-203.33 197.99 -203.66 198.98 -204 200 C-204.66 200 -205.32 200 -206 200 C-206 200.66 -206 201.32 -206 202 C-207.375 203.625 -207.375 203.625 -209 205 C-209.66 205 -210.32 205 -211 205 C-211.25136719 205.58910156 -211.50273438 206.17820312 -211.76171875 206.78515625 C-213.15455401 209.27644202 -214.6208572 210.62300414 -216.8125 212.4375 C-220.80777572 215.8258984 -224.62148841 219.19367447 -227.8125 223.375 C-230.29001426 226.34801711 -233.02741543 228.71642059 -235.96875 231.21875 C-237.86829752 232.88450706 -239.62410903 234.61794664 -241.375 236.4375 C-244 239 -244 239 -246 239 C-246.226875 239.5775 -246.45375 240.155 -246.6875 240.75 C-248.34761639 243.59591381 -250.39187957 244.99841921 -253 247 C-255.194064 249.14898049 -257.34832663 251.33321351 -259.49487305 253.52954102 C-261.0561481 255.12676405 -262.62175533 256.71965962 -264.1875 258.3125 C-264.72052734 258.86228516 -265.25355469 259.41207031 -265.80273438 259.97851562 C-267.16424956 261.35715678 -268.57840502 262.68339727 -270 264 C-270.66 264 -271.32 264 -272 264 C-270.55922954 260.63820226 -268.75249979 258.40843732 -266 256 C-265.34 256 -264.68 256 -264 256 C-263.773125 255.4225 -263.54625 254.845 -263.3125 254.25 C-261.65599487 251.41027692 -259.57432012 250.04775464 -257 248 C-256.04156542 246.91395515 -255.10541222 245.8080032 -254.1875 244.6875 C-252.06931866 242.13423661 -249.87811377 239.94671899 -247.34375 237.80859375 C-242.78393419 233.87068978 -238.54630442 229.65799071 -234.3125 225.375 C-233.57966797 224.63765625 -232.84683594 223.9003125 -232.09179688 223.140625 C-229.20340298 220.23399959 -226.31909314 217.32347762 -223.44140625 214.40625 C-219.61140026 210.6313961 -215.65090696 206.99855217 -211.703125 203.34765625 C-207.83933586 199.75985205 -204.09597528 196.09901132 -200.45849609 192.28076172 C-199 191 -199 191 -197 191 C-196.74025391 190.41573242 -196.48050781 189.83146484 -196.21289062 189.22949219 C-194.915344 186.84438836 -193.50658878 185.24809363 -191.59375 183.328125 C-190.93246094 182.66425781 -190.27117187 182.00039063 -189.58984375 181.31640625 C-188.90019531 180.63449219 -188.21054688 179.95257812 -187.5 179.25 C-186.46552734 178.20392578 -186.46552734 178.20392578 -185.41015625 177.13671875 C-184.74886719 176.47800781 -184.08757812 175.81929687 -183.40625 175.140625 C-182.80103516 174.53766602 -182.19582031 173.93470703 -181.57226562 173.31347656 C-180 172 -180 172 -178 172 C-178 171.34 -178 170.68 -178 170 C-176.53125 168.5546875 -176.53125 168.5546875 -174.5 166.875 C-170.6500766 163.62106119 -167.13935665 160.15227282 -163.6640625 156.50390625 C-162 155 -162 155 -160 155 C-159.773125 154.4225 -159.54625 153.845 -159.3125 153.25 C-157.66800353 150.43086319 -155.5644533 148.98745131 -153 147 C-152.34 146.01 -151.68 145.02 -151 144 C-150.34 144 -149.68 144 -149 144 C-149 143.34 -149 142.68 -149 142 C-148.34 142 -147.68 142 -147 142 C-147 141.34 -147 140.68 -147 140 C-145.33784732 138.66104368 -143.67036393 137.32869858 -142 136 C-140.66172696 134.33729713 -139.32810215 132.67083819 -138 131 C-134.48275862 128 -134.48275862 128 -132 128 C-132 127.34 -132 126.68 -132 126 C-131.34 126 -130.68 126 -130 126 C-130 125.34 -130 124.68 -130 124 C-129.34 124 -128.68 124 -128 124 C-127.67 123.01 -127.34 122.02 -127 121 C-124.5625 118.3125 -124.5625 118.3125 -122 116 C-121.34 116 -120.68 116 -120 116 C-119.67 115.01 -119.34 114.02 -119 113 C-117.328125 111.38671875 -117.328125 111.38671875 -115.25 109.6875 C-112.70833396 107.53789947 -110.64526441 105.57431729 -108.5 103 C-105.92555836 99.91067003 -103.18504345 97.47111371 -100.12890625 94.87890625 C-97.14326486 92.24387229 -94.40939965 89.38596338 -91.6640625 86.50390625 C-90 85 -90 85 -88 85 C-87.01 83.02 -87.01 83.02 -86 81 C-85.34 81 -84.68 81 -84 81 C-83.76925781 80.43023437 -83.53851562 79.86046875 -83.30078125 79.2734375 C-81.67078906 76.42462232 -79.67972457 74.75478711 -77.1875 72.625 C-74.21786499 70.03619714 -71.47584564 67.55412121 -69.0625 64.4375 C-68.381875 63.633125 -67.70125 62.82875 -67 62 C-66.01 62 -65.02 62 -64 62 C-63.79375 61.443125 -63.5875 60.88625 -63.375 60.3125 C-62.03153247 58.05303189 -60.94842298 57.0001344 -58.9375 55.375 C-55.99175287 53.32880603 -55.99175287 53.32880603 -55 51 C-54.34 51 -53.68 51 -53 51 C-53 50.34 -53 49.68 -53 49 C-51.42578125 47.44921875 -51.42578125 47.44921875 -49.3125 45.6875 C-44.8674513 41.89866236 -40.80572648 37.98800281 -37.0625 33.5 C-34.29941943 30.22681225 -31.32856088 27.69117688 -28 25 C-26.31707174 23.34717779 -24.65445326 21.68093521 -23 20 C-20.33631852 17.3095281 -17.66847983 14.62321171 -15 11.9375 C-13.95199219 10.87692383 -13.95199219 10.87692383 -12.8828125 9.79492188 C-3.13387617 0 -3.13387617 0 0 0 Z " fill="#232323" transform="translate(1472,392)"/>
<path d="M0 0 C0.66 0 1.32 0 2 0 C2.04626639 11.96075236 2.08184014 23.92148356 2.10362434 35.88230705 C2.11407774 41.43573026 2.12826523 46.98909241 2.15087891 52.54248047 C2.17255192 57.89816008 2.1845569 63.25378082 2.18975449 68.60950089 C2.19346023 70.65651502 2.20069624 72.7035258 2.21146011 74.75051498 C2.22590142 77.60962733 2.22798104 80.46849399 2.22705078 83.32763672 C2.23424133 84.18071411 2.24143188 85.0337915 2.24884033 85.91271973 C2.22810432 91.77189568 2.22810432 91.77189568 0 94 C-1.80208415 94.251849 -1.80208415 94.251849 -4.03045177 94.25447559 C-4.8786153 94.26030779 -5.72677884 94.26613998 -6.60064429 94.27214891 C-7.53786914 94.26836958 -8.475094 94.26459026 -9.4407196 94.26069641 C-10.92811314 94.26643473 -10.92811314 94.26643473 -12.44555503 94.27228898 C-15.79017229 94.28266154 -19.13461922 94.27861862 -22.47924805 94.2746582 C-24.86896932 94.27900265 -27.2586892 94.2841849 -29.64840698 94.29014587 C-35.48188476 94.30218594 -41.31531985 94.30468235 -47.14880534 94.30234561 C-51.89596488 94.30056356 -56.64311046 94.3023097 -61.39026833 94.30657005 C-62.06563001 94.30716524 -62.74099169 94.30776043 -63.43681887 94.30837366 C-64.80891484 94.30958543 -66.1810108 94.31079957 -67.55310676 94.31201603 C-80.43779662 94.3229058 -93.32246035 94.32072388 -106.20715169 94.31463119 C-117.96923568 94.30947597 -129.73123649 94.32067787 -141.49330404 94.33972941 C-153.58119028 94.35915756 -165.66903729 94.36735414 -177.75693923 94.36360615 C-184.53871345 94.36169968 -191.32041714 94.36412615 -198.10217857 94.37832069 C-204.49204749 94.39094972 -210.88175134 94.38890693 -217.27161789 94.37590981 C-219.60836532 94.37355449 -221.94512454 94.37624092 -224.28185844 94.38453293 C-236.56973347 94.42496634 -248.06896286 94.14505361 -260 91 C-260.80381953 90.7974677 -261.60763906 90.5949354 -262.43581676 90.38626575 C-274.27585496 87.22813665 -285.25910642 82.52705413 -295 75 C-293 74 -293 74 -291.08984375 74.48828125 C-290.37957031 74.76027344 -289.66929687 75.03226563 -288.9375 75.3125 C-288.22464844 75.57675781 -287.51179688 75.84101562 -286.77734375 76.11328125 C-285 77 -285 77 -284 79 C-282.11736119 79.90343684 -282.11736119 79.90343684 -279.9375 80.625 C-279.20402344 80.88539063 -278.47054688 81.14578125 -277.71484375 81.4140625 C-276.86599609 81.70410156 -276.86599609 81.70410156 -276 82 C-276 82.66 -276 83.32 -276 84 C-274.60974609 84.18175781 -274.60974609 84.18175781 -273.19140625 84.3671875 C-271.99386719 84.53476562 -270.79632812 84.70234375 -269.5625 84.875 C-268.36753906 85.03742188 -267.17257812 85.19984375 -265.94140625 85.3671875 C-264.97074219 85.57601562 -264.00007812 85.78484375 -263 86 C-262.67 86.66 -262.34 87.32 -262 88 C-258.83754459 89.0541518 -256.13051782 89.31275672 -252.8125 89.5625 C-251.18248047 89.68818359 -251.18248047 89.68818359 -249.51953125 89.81640625 C-248.68808594 89.87699219 -247.85664062 89.93757812 -247 90 C-247 90.66 -247 91.32 -247 92 C-165.49 92 -83.98 92 0 92 C0 61.64 0 31.28 0 0 Z " fill="#B04629" transform="translate(785,605)"/>
<path d="M0 0 C0.99 0 1.98 0 3 0 C3 69.63 3 139.26 3 211 C3.66 211.33 4.32 211.66 5 212 C5 212.66 5 213.32 5 214 C-73.21 214 -151.42 214 -232 214 C-232 213.67 -232 213.34 -232 213 C-155.44 213 -78.88 213 0 213 C0 142.71 0 72.42 0 0 Z " fill="#A04329" transform="translate(781,380)"/>
<path d="M0 0 C0.66 0 1.32 0 2 0 C2.09119676 28.99475364 2.16201093 57.98949331 2.20426132 86.98436164 C2.20926431 90.40534615 2.21444158 93.82633037 2.21972656 97.24731445 C2.2207758 97.92838769 2.22182505 98.60946093 2.22290608 99.31117275 C2.2403243 110.34755086 2.27186972 121.38384587 2.30861118 132.42017464 C2.34598133 143.73952205 2.36792798 155.05880775 2.37635398 166.37822074 C2.38157996 172.73827663 2.39390752 179.09814385 2.42292023 185.45813942 C2.44998442 191.43921281 2.4584632 197.42001904 2.45243073 203.40114784 C2.453535 205.60104319 2.46154206 207.80094708 2.4768219 210.00078964 C2.49660883 212.99535076 2.4919804 215.98889195 2.48101807 218.98347473 C2.49266943 219.86187242 2.5043208 220.74027011 2.51632524 221.6452859 C2.45919218 227.3856217 2.45919218 227.3856217 0.47454834 230.04098511 C-3.03794382 231.40225667 -6.36332801 231.40306277 -10.0737915 231.36076355 C-10.89391968 231.36332682 -11.71404785 231.3658901 -12.55902839 231.36853105 C-15.31071029 231.3734776 -18.0618451 231.35696174 -20.81347656 231.34057617 C-22.78448473 231.33973009 -24.75549385 231.34020468 -26.72650146 231.34190369 C-32.08154826 231.34276579 -37.43639419 231.32510512 -42.79139423 231.30418181 C-48.3861267 231.28545092 -53.98086357 231.2836674 -59.57562256 231.28010559 C-70.17199126 231.27077458 -80.76826731 231.24614647 -91.36459517 231.21605712 C-103.42732326 231.182546 -115.49005574 231.16603537 -127.55281878 231.15097082 C-152.36859725 231.11959787 -177.18429344 231.06681682 -202 231 C-202 230.67 -202 230.34 -202 230 C-200.97625086 229.99668985 -199.95250172 229.99337971 -198.89772987 229.98996925 C-174.01993356 229.90907614 -149.14219955 229.81679188 -124.26449013 229.71247292 C-112.23395695 229.66229102 -100.20343078 229.61584886 -88.17285156 229.578125 C-77.69044191 229.54524629 -67.20808576 229.50543812 -56.72573507 229.45720994 C-51.17230852 229.43190385 -45.61891766 229.41013482 -40.06544876 229.39665604 C-34.84360367 229.38387285 -29.62188069 229.36185932 -24.40010262 229.33261681 C-22.47878777 229.32351162 -20.55745325 229.317844 -18.63611794 229.31578636 C-16.0223777 229.31248448 -13.40898807 229.29706403 -10.7953186 229.2784729 C-9.64260906 229.281375 -9.64260906 229.281375 -8.46661246 229.28433573 C-4.27575917 229.37865585 -4.27575917 229.37865585 -1 227 C-0.79409855 224.01726138 -0.71494603 221.12626888 -0.7215271 218.14169312 C-0.7128385 216.74868026 -0.7128385 216.74868026 -0.70397437 215.32752573 C-0.68688636 212.1966688 -0.68409032 209.06595849 -0.68115234 205.93505859 C-0.67186023 203.69833511 -0.66169265 201.46161512 -0.65071106 199.22489929 C-0.62331611 193.13637635 -0.60823361 187.04787665 -0.59528303 180.95930815 C-0.57969389 174.60245298 -0.55289034 168.24564561 -0.5272522 161.88882446 C-0.48571989 151.21398182 -0.45114682 140.53913926 -0.421875 129.86425781 C-0.39170244 118.86781948 -0.35735816 107.87140726 -0.31738281 96.875 C-0.31492126 96.19747745 -0.31245972 95.5199549 -0.30992357 94.82190137 C-0.29754922 91.42305821 -0.28509264 88.02421536 -0.27259517 84.62537265 C-0.16897983 56.4169514 -0.07994004 28.20849752 0 0 Z " fill="#2D2D2D" transform="translate(875,0)"/>
<path d="M0 0 C0.33 0 0.66 0 1 0 C1.09148275 57.76881263 1.16200978 115.53761867 1.20426132 173.30648939 C1.20925079 180.12099306 1.21443699 186.93549656 1.21972656 193.75 C1.2202496 194.42813555 1.22077263 195.10627109 1.22131152 195.8049562 C1.23836579 217.79684053 1.26841763 239.78868383 1.30518888 261.78054329 C1.34396668 285.01458692 1.36797858 308.24860609 1.37635398 331.48268437 C1.38185242 345.40639568 1.39924132 359.32998922 1.43166587 373.25366428 C1.45275039 382.79148262 1.45921383 392.32923974 1.45400551 401.8670797 C1.45143427 407.37638104 1.45547601 412.88547607 1.4768219 418.39474106 C1.49620168 423.43314535 1.49732606 428.4712034 1.48359558 433.5096232 C1.48189711 435.33741465 1.4870437 437.16522718 1.49953273 438.99297675 C1.51547003 441.46825498 1.50700612 443.94226574 1.49219131 446.41752243 C1.50269937 447.13538721 1.51320742 447.85325198 1.5240339 448.59287024 C1.47815115 451.96043604 1.20905229 453.7232904 -0.84577847 456.44314289 C-3.81571534 458.58951793 -5.83279008 458.49259432 -9.47930908 458.48101807 C-10.12792805 458.48443577 -10.77654703 458.48785347 -11.44482112 458.49137473 C-13.61633424 458.49795891 -15.78660877 458.47597113 -17.95800781 458.45410156 C-19.51522797 458.45297319 -21.07245027 458.45360675 -22.62966919 458.45587158 C-26.85675647 458.45702006 -31.08339049 458.43348928 -35.31037235 458.40557575 C-39.72794871 458.38058435 -44.14553525 458.37822189 -48.56317139 458.37347412 C-56.92838996 458.36103768 -65.29339963 458.32820706 -73.65852618 458.28807616 C-83.18198744 458.24337922 -92.70545864 458.22137665 -102.22899866 458.20129442 C-121.81944907 458.15947499 -141.40971138 458.08910996 -161 458 C-161 457.67 -161 457.34 -161 457 C-160.20393687 456.99761165 -159.40787374 456.99522329 -158.58768749 456.99276257 C-139.23402511 456.93367356 -119.88049092 456.85816282 -100.52696514 456.76428509 C-91.16780916 456.71928448 -81.8086916 456.67987974 -72.44946289 456.65356445 C-64.29369405 456.63061882 -56.13804636 456.5972595 -47.98237354 456.55129844 C-43.66241668 456.52731969 -39.34258015 456.50862149 -35.02255821 456.50238609 C-30.95874711 456.49635616 -26.89524405 456.47643278 -22.83154678 456.44572449 C-21.33798801 456.43691054 -19.84438903 456.43322859 -18.35080528 456.43499184 C-16.31555594 456.43663632 -14.28031951 456.41823116 -12.24516296 456.39872742 C-11.10490504 456.39411845 -9.96464712 456.38950949 -8.78983593 456.38476086 C-5.66961584 455.95443499 -4.96181646 455.34379888 -3 453 C-2.34 453 -1.68 453 -1 453 C-0.67 303.51 -0.34 154.02 0 0 Z " fill="#303030" transform="translate(1113,235)"/>
<path d="M0 0 C1.17928762 -0.02711563 2.35857525 -0.05423126 3.57359886 -0.08216858 C4.56637998 -0.11614494 5.55916109 -0.15012131 6.58202648 -0.18512726 C7.33988791 -0.08738258 8.09774935 0.01036209 8.87857628 0.11106873 C11.45379906 3.97390289 11.13389397 7.1212393 11.08112144 11.59609985 C11.07755939 12.91076507 11.07755939 12.91076507 11.07392538 14.25198919 C11.06347637 17.2001796 11.03859496 20.14807375 11.01383018 23.09617615 C11.00340818 25.20496213 10.99387219 27.31375265 10.98515892 29.42254639 C10.95893801 35.15779984 10.9202727 40.89291081 10.87943506 46.62807631 C10.83888037 52.61783741 10.80968436 58.60765337 10.7793026 64.59747314 C10.72001103 75.94470555 10.65044931 87.29185103 10.57723176 98.63900119 C10.49438648 111.55534846 10.42293862 124.47175082 10.35246587 137.3881706 C10.20721819 163.96255101 10.0475998 190.53682966 9.87857628 217.11106873 C9.21857628 217.11106873 8.55857628 217.11106873 7.87857628 217.11106873 C7.54857628 218.43106873 7.21857628 219.75106873 6.87857628 221.11106873 C5.55857628 220.78106873 4.23857628 220.45106873 2.87857628 220.11106873 C3.69039203 219.46524999 4.50220778 218.81943125 5.338624 218.15404224 C8.58435368 214.26551664 8.58130972 211.26586134 8.51781273 206.42349243 C8.52616646 205.55152725 8.53452019 204.67956207 8.54312706 203.78117371 C8.56512184 200.85061445 8.55139359 197.92130339 8.53800011 194.9907074 C8.54649086 192.85746733 8.55717029 190.72423502 8.56986332 188.59101582 C8.59782362 182.87491623 8.59580204 177.15919363 8.58761406 171.44304657 C8.58446233 166.08053989 8.60829019 160.7182862 8.62991905 155.3558197 C8.6774407 139.67012812 8.68160496 123.98432944 8.69107628 108.29856873 C8.75295128 73.25669373 8.81482628 38.21481873 8.87857628 2.11106873 C-66.03142372 2.11106873 -140.94142372 2.11106873 -218.12142372 2.11106873 C-218.12142372 1.78106873 -218.12142372 1.45106873 -218.12142372 1.11106873 C-190.44380966 0.98031339 -162.76619398 0.84990831 -135.08857632 0.7199173 C-122.23665032 0.65954868 -109.38472487 0.59906655 -96.53280067 0.53831482 C-85.32774371 0.48534821 -74.12268575 0.432597 -62.91762656 0.38010168 C-56.9876976 0.35231272 -51.05776919 0.32441777 -45.12784195 0.29626465 C-39.53914001 0.26973495 -33.95043679 0.24349465 -28.36173248 0.21747017 C-26.31763217 0.20790167 -24.27353234 0.19823015 -22.22943306 0.18844414 C-21.26918976 0.18385248 -20.30894646 0.17926083 -19.31960487 0.17453003 C-18.39293145 0.16995033 -17.46625802 0.16537064 -16.51150358 0.16065216 C-14.74568475 0.15305992 -12.97985606 0.14743588 -11.21402419 0.14403534 C-7.47376535 0.13609217 -3.7387564 0.11040416 0 0 Z " fill="#3B1204" transform="translate(889.1214237213135,279.88893127441406)"/>
<path d="M0 0 C0.66 0 1.32 0 2 0 C2.30402863 27.546869 2.53309536 55.09348565 2.67355824 82.64169598 C2.74051913 95.43365842 2.83176614 108.22457691 2.98071289 121.01586914 C3.11051271 132.16819673 3.19420944 143.31976813 3.22315043 154.47283012 C3.24006217 160.37576527 3.27964297 166.27653764 3.37449074 172.17877769 C3.46316107 177.74201597 3.48986846 183.30221485 3.47039986 188.86609268 C3.47395769 190.90068563 3.49957286 192.9353869 3.54967117 194.96936607 C3.94606865 211.90278328 3.94606865 211.90278328 -2.7538808 219.06926614 C-5.38594835 221.56769507 -8.10146571 223.81513008 -11 226 C-11 224.33333333 -11 222.66666667 -11 221 C-9.33720673 219.9935725 -7.67016516 218.99414593 -6 218 C-5.34 217.01 -4.68 216.02 -4 215 C-3.34 215 -2.68 215 -2 215 C-2 214.01 -2 213.02 -2 212 C-1.34 212 -0.68 212 0 212 C0 142.04 0 72.08 0 0 Z " fill="#EC6F32" transform="translate(895,283)"/>
<path d="M0 0 C1 3 1 3 0 6 C-0.11015243 8.85906348 -0.16453706 11.69502233 -0.17358398 14.5546875 C-0.180271 15.42812805 -0.18695801 16.3015686 -0.19384766 17.20147705 C-0.20789893 19.09867965 -0.21979274 20.99589917 -0.22979546 22.89312744 C-0.24619484 25.89349534 -0.26943093 28.8937374 -0.29469299 31.89404297 C-0.36550829 40.42474108 -0.42567178 48.95548974 -0.47680664 57.48632812 C-0.50855471 62.70290777 -0.54981615 67.91934149 -0.59700203 73.13580322 C-0.61304329 75.12613305 -0.625355 77.11649648 -0.63390923 79.10687256 C-0.64603026 81.88650382 -0.67016527 84.66579024 -0.69702148 87.4453125 C-0.69761063 88.27138 -0.69819977 89.09744751 -0.69880676 89.94854736 C-0.7484307 93.81427765 -0.80604497 95.70906746 -3 99 C-4.83644563 99.3684848 -4.83644563 99.3684848 -7.11412525 99.35911274 C-7.98093916 99.36283589 -8.84775306 99.36655903 -9.74083406 99.370395 C-10.69887789 99.35912977 -11.65692173 99.34786454 -12.64399719 99.33625793 C-13.65742178 99.33614879 -14.67084636 99.33603964 -15.71498078 99.33592719 C-19.13350937 99.33181921 -22.55154 99.30607901 -25.9699707 99.28051758 C-28.41219232 99.27308776 -30.85441818 99.26695361 -33.29664612 99.26202393 C-39.25788658 99.24643798 -45.21890789 99.21677713 -51.18004654 99.18057058 C-58.12787691 99.13890601 -65.07573981 99.11257339 -72.02364399 99.08674427 C-84.43193497 99.04003309 -96.84010878 98.97844516 -109.24829102 98.90893555 C-121.27137198 98.84158902 -133.29443406 98.78593271 -145.31762695 98.74291992 C-158.41177639 98.69605716 -171.50587287 98.64308758 -184.59995145 98.57922095 C-185.99962469 98.57239738 -187.39929793 98.56557442 -188.79897118 98.55875206 C-189.48757951 98.55538441 -190.17618784 98.55201676 -190.8856631 98.54854706 C-195.71965192 98.52526112 -200.553647 98.50607413 -205.38765907 98.48835182 C-211.91378112 98.46421004 -218.4397897 98.42933164 -224.96582603 98.38749695 C-227.35499773 98.37368906 -229.74419091 98.36313487 -232.13339233 98.35616112 C-261.56215416 98.265143 -261.56215416 98.265143 -270 94 C-271.216875 93.835 -272.43375 93.67 -273.6875 93.5 C-274.780625 93.335 -275.87375 93.17 -277 93 C-277.33 92.34 -277.66 91.68 -278 91 C-279.85240164 90.16952992 -279.85240164 90.16952992 -282 89.5 C-284.1875 88.78125 -284.1875 88.78125 -286 88 C-286.33 87.34 -286.66 86.68 -287 86 C-283.64814575 86.58114461 -280.78885806 87.42983415 -277.6875 88.8125 C-273.1397144 90.68351089 -268.57368164 92.00173983 -263.8125 93.1875 C-263.14758545 93.35419189 -262.4826709 93.52088379 -261.79760742 93.69262695 C-254.08212199 95.55848835 -246.75980199 96.14587829 -238.86380005 96.12698364 C-237.35518144 96.12932363 -237.35518144 96.12932363 -235.8160857 96.13171089 C-232.45436113 96.13569173 -229.09268192 96.13254259 -225.73095703 96.12939453 C-223.31778436 96.13074981 -220.90461189 96.13253046 -218.49143982 96.13470459 C-212.62391569 96.13878935 -206.75640329 96.13819413 -200.88887949 96.13529195 C-196.12265398 96.13303212 -191.35643205 96.13272791 -186.59020615 96.13381577 C-185.91147979 96.133969 -185.23275344 96.13412223 -184.53345963 96.13428011 C-183.15465109 96.13459983 -181.77584256 96.13492405 -180.39703403 96.1352527 C-167.47936925 96.13810186 -154.56171158 96.13482863 -141.64404796 96.12945233 C-130.55143207 96.12497874 -119.45882664 96.12576588 -108.36621094 96.13037109 C-95.48496226 96.13571637 -82.60371979 96.13783361 -69.72247016 96.13475883 C-68.3506132 96.13444027 -66.97875623 96.1341259 -65.60689926 96.13381577 C-64.59439718 96.13358435 -64.59439718 96.13358435 -63.56144051 96.13334826 C-58.7958836 96.13248342 -54.03033062 96.13394516 -49.26477432 96.13629532 C-42.86097979 96.13938402 -36.45720043 96.13720187 -30.05340767 96.13140106 C-27.69626333 96.13007277 -25.33911734 96.13046873 -22.98197365 96.13266373 C-19.77939213 96.13537234 -16.57687542 96.13199776 -13.3742981 96.12698364 C-11.95590612 96.13032973 -11.95590612 96.13032973 -10.50885975 96.13374341 C-6.43174456 96.53699059 -6.43174456 96.53699059 -3 95 C-2.8853722 92.11970913 -2.83514255 89.26242421 -2.82641602 86.38110352 C-2.819729 85.47708801 -2.81304199 84.57307251 -2.80615234 83.6416626 C-2.79206728 81.67184886 -2.78018434 79.70201846 -2.77020454 77.73217964 C-2.75385334 74.61883119 -2.73061887 71.50560641 -2.70530701 68.39231873 C-2.63436333 59.53821934 -2.57433301 50.68406944 -2.52319336 41.82983398 C-2.49147009 36.42105168 -2.45021141 31.0124108 -2.40299797 25.6037426 C-2.38693714 23.53722608 -2.37463457 21.47067694 -2.36609077 19.40411568 C-2.35398938 16.51869403 -2.32986194 13.63360723 -2.30297852 10.74829102 C-2.30238937 9.88743393 -2.30180023 9.02657684 -2.30119324 8.13963318 C-2.22789562 2.22789562 -2.22789562 2.22789562 0 0 Z " fill="#2B0800" transform="translate(789,602)"/>
<path d="M0 0 C0.33 0 0.66 0 1 0 C1.02312166 12.23880329 1.04091418 24.47760143 1.05181217 36.71642208 C1.05704139 42.39876512 1.06413973 48.08109327 1.07543945 53.76342773 C1.08626696 59.24229136 1.09227654 64.72114062 1.09487724 70.20001411 C1.09673174 72.29529611 1.10035282 74.39057728 1.10573006 76.4858532 C1.11293868 79.40977584 1.11399102 82.33363833 1.11352539 85.25756836 C1.11712067 86.1329425 1.12071594 87.00831665 1.12442017 87.91021729 C1.11405216 93.88594784 1.11405216 93.88594784 0 95 C-1.6195634 95.09603022 -3.24333083 95.12187855 -4.86573792 95.12025452 C-5.91888184 95.12162918 -6.97202576 95.12300385 -8.05708313 95.12442017 C-9.80495369 95.11902725 -9.80495369 95.11902725 -11.58813477 95.11352539 C-13.41714828 95.11374443 -13.41714828 95.11374443 -15.28311157 95.1139679 C-18.63627511 95.11338893 -21.98937774 95.10835968 -25.34253049 95.10139394 C-28.84325562 95.09515983 -32.34398148 95.09455656 -35.8447113 95.09336853 C-42.47809656 95.09025538 -49.11146541 95.08204222 -55.74484342 95.07201904 C-63.29490207 95.06085739 -70.84496149 95.05534732 -78.39502633 95.05032361 C-93.93002706 95.03985959 -109.46501142 95.02226047 -125 95 C-125 94.67 -125 94.34 -125 94 C-123.39958862 93.9845388 -123.39958862 93.9845388 -121.7668457 93.96876526 C-111.64707295 93.87044883 -101.52735377 93.76766735 -91.40766907 93.66066074 C-86.2066943 93.60580464 -81.00571368 93.55245023 -75.8046875 93.50268555 C-70.77309965 93.4544842 -65.74156965 93.40213218 -60.71005249 93.34705925 C-58.80302395 93.32688493 -56.89597972 93.30813547 -54.98892212 93.29092598 C-44.73229763 93.19738602 -34.53401528 92.95374324 -24.30198669 92.21372986 C-19.88142839 91.92759748 -15.48923088 91.92073893 -11.0625 92 C-8.36907493 92.04463008 -5.69449185 92.04849479 -3 92 C-0.93181736 89.93181736 -1.82480488 85.49057975 -1.81054688 82.640625 C-1.80225357 81.76426392 -1.79396027 80.88790283 -1.78541565 79.98498535 C-1.76797493 78.07574297 -1.75281924 76.1664787 -1.73963928 74.25720215 C-1.71868572 71.24074585 -1.69165781 68.22439975 -1.66296387 65.20800781 C-1.60315588 58.80538042 -1.5510447 52.40270248 -1.5 46 C-1.44087736 38.58405528 -1.37866522 31.16816497 -1.30812073 23.75231934 C-1.28144171 20.77142054 -1.26069013 17.7905166 -1.2401123 14.80957031 C-1.22351664 12.99283586 -1.20664545 11.1761039 -1.18945312 9.359375 C-1.18526871 8.52297485 -1.18108429 7.68657471 -1.17677307 6.8248291 C-1.11384346 1.11384346 -1.11384346 1.11384346 0 0 Z " fill="#481B0B" transform="translate(669,281)"/>
<path d="M0 0 C35.31 0 70.62 0 107 0 C107 0.33 107 0.66 107 1 C94.66607942 2.9186431 82.64872656 3.26657636 70.1875 3.1953125 C68.23738756 3.19157184 66.28727321 3.18872986 64.3371582 3.18673706 C59.26068728 3.17918337 54.18433495 3.15960821 49.10791016 3.1373291 C43.90528975 3.11669027 38.70264975 3.10769719 33.5 3.09765625 C23.33328188 3.07635261 13.16665089 3.04231946 3 3 C3 2.34 3 1.68 3 1 C2.01 0.67 1.02 0.34 0 0 Z " fill="#20120E" transform="translate(541,372)"/>
<path d="M0 0 C0.66 0.33 1.32 0.66 2 1 C-14.5 17.5 -31 34 -48 51 C-48.33 49.68 -48.66 48.36 -49 47 C-48.34 46.34 -47.68 45.68 -47 45 C-46.01 45 -45.02 45 -44 45 C-43.896875 44.401875 -43.79375 43.80375 -43.6875 43.1875 C-43 41 -43 41 -41.4375 39.5 C-39.53872976 37.86494057 -39.53872976 37.86494057 -40 34 C-37.75 32.5 -37.75 32.5 -35 31 C-34.29875 30.278125 -33.5975 29.55625 -32.875 28.8125 C-31 27 -31 27 -28 27 C-27.67 26.34 -27.34 25.68 -27 25 C-26.34 25 -25.68 25 -25 25 C-24.28832014 19.92928099 -23.89337674 15.11791642 -24 10 C-23.16855469 10.01160156 -22.33710937 10.02320313 -21.48046875 10.03515625 C-19.85044922 10.04869141 -19.85044922 10.04869141 -18.1875 10.0625 C-16.56908203 10.07990234 -16.56908203 10.07990234 -14.91796875 10.09765625 C-11.93487831 10.13624766 -11.93487831 10.13624766 -9 9 C-9 8.34 -9 7.68 -9 7 C-7.68 6.67 -6.36 6.34 -5 6 C-5 5.01 -5 4.02 -5 3 C-2.625 1.25 -2.625 1.25 0 0 Z " fill="#FA4E1E" transform="translate(856,534)"/>
<path d="M0 0 C26.73 0 53.46 0 81 0 C80.67 0.99 80.34 1.98 80 3 C48.32 3 16.64 3 -16 3 C-16 2.67 -16 2.34 -16 2 C-10.72 2 -5.44 2 0 2 C0 1.34 0 0.68 0 0 Z " fill="#F96621" transform="translate(800,283)"/>
<path d="M0 0 C0 1.65 0 3.3 0 5 C0.88445801 4.93941406 1.76891602 4.87882813 2.68017578 4.81640625 C32.53218538 2.80330224 32.53218538 2.80330224 46 2.8125 C46.91152832 2.81185547 47.82305664 2.81121094 48.76220703 2.81054688 C54.86323485 2.86323485 54.86323485 2.86323485 56 4 C57.34747084 4.23075082 58.70377565 4.41153063 60.0625 4.5625 C61.361875 4.706875 62.66125 4.85125 64 5 C63.67 5.99 63.34 6.98 63 8 C45.51 8 28.02 8 10 8 C10 7.34 10 6.68 10 6 C9.16855469 6.01160156 8.33710937 6.02320313 7.48046875 6.03515625 C6.39378906 6.04417969 5.30710937 6.05320312 4.1875 6.0625 C3.10855469 6.07410156 2.02960937 6.08570313 0.91796875 6.09765625 C-2 6 -2 6 -5 5 C-4.6875 3.0625 -4.6875 3.0625 -4 1 C-1 0 -1 0 0 0 Z " fill="#F23D1C" transform="translate(528,689)"/>
<path d="M0 0 C0.33 0 0.66 0 1 0 C1.10137822 6.90498319 1.1714562 13.80977465 1.21972656 20.71533203 C1.23984814 23.06468884 1.26714851 25.41399554 1.30175781 27.76318359 C1.3502504 31.13912315 1.37296357 34.51440086 1.390625 37.890625 C1.41127014 38.94179504 1.43191528 39.99296509 1.45318604 41.07598877 C1.45348816 42.05670349 1.45379028 43.03741821 1.45410156 44.04785156 C1.46298401 44.90944885 1.47186646 45.77104614 1.48101807 46.65875244 C0.81465291 49.90213538 -0.41978277 50.95340388 -3 53 C-5.95973587 53.49219131 -5.95973587 53.49219131 -9.47930908 53.48101807 C-10.12792805 53.48443577 -10.77654703 53.48785347 -11.44482112 53.49137473 C-13.61633424 53.49795891 -15.78660877 53.47597113 -17.95800781 53.45410156 C-19.51522797 53.45297319 -21.07245027 53.45360675 -22.62966919 53.45587158 C-26.85675647 53.45702006 -31.08339049 53.43348928 -35.31037235 53.40557575 C-39.72794871 53.38058435 -44.14553525 53.37822189 -48.56317139 53.37347412 C-56.92838996 53.36103768 -65.29339963 53.32820706 -73.65852618 53.28807616 C-83.18198744 53.24337922 -92.70545864 53.22137665 -102.22899866 53.20129442 C-121.81944907 53.15947499 -141.40971138 53.08910996 -161 53 C-161 52.67 -161 52.34 -161 52 C-160.20393687 51.99761165 -159.40787374 51.99522329 -158.58768749 51.99276257 C-139.23402511 51.93367356 -119.88049092 51.85816282 -100.52696514 51.76428509 C-91.16780916 51.71928448 -81.8086916 51.67987974 -72.44946289 51.65356445 C-64.29369405 51.63061882 -56.13804636 51.5972595 -47.98237354 51.55129844 C-43.66241668 51.52731969 -39.34258015 51.50862149 -35.02255821 51.50238609 C-30.95874711 51.49635616 -26.89524405 51.47643278 -22.83154678 51.44572449 C-21.33798801 51.43691054 -19.84438903 51.43322859 -18.35080528 51.43499184 C-16.31555594 51.43663632 -14.28031951 51.41823116 -12.24516296 51.39872742 C-11.10490504 51.39411845 -9.96464712 51.38950949 -8.78983593 51.38476086 C-5.66961584 50.95443499 -4.96181646 50.34379888 -3 48 C-2.34 48 -1.68 48 -1 48 C-0.67 32.16 -0.34 16.32 0 0 Z " fill="#2B2B2B" transform="translate(1113,640)"/>
<path d="M0 0 C0.81386266 2.32826534 1.18881594 3.52696638 0.2578125 5.859375 C-0.11601562 6.48328125 -0.48984375 7.1071875 -0.875 7.75 C-2.45666517 10.64881979 -3.28246306 12.89551016 -3.5625 16.1875 C-4 20 -4 20 -5.4375 22.3125 C-9.97254529 30.11277789 -9.28493267 40.36776307 -9.24291992 49.11206055 C-9.24481827 50.37543747 -9.24671661 51.63881439 -9.24867249 52.94047546 C-9.25347644 56.37472248 -9.24591906 59.80883739 -9.23571944 63.24306846 C-9.22685263 66.86303764 -9.22869813 70.48300373 -9.2290802 74.10298157 C-9.22814661 80.18448049 -9.21950804 86.26592923 -9.20581055 92.34741211 C-9.19012382 99.3370343 -9.18481147 106.32660148 -9.1855461 113.31624001 C-9.18622679 120.80929817 -9.17925336 128.30233566 -9.1700995 135.79538751 C-9.16798794 137.92981755 -9.16726102 140.06424417 -9.16686058 142.19867516 C-9.18704932 163.12026185 -9.18704932 163.12026185 -8 184 C-10.50059819 179.33221671 -11.12498887 175.54821855 -11.14044189 170.26028442 C-11.14615204 169.08862228 -11.15186218 167.91696014 -11.15774536 166.70979309 C-11.15886322 165.42771469 -11.15998108 164.14563629 -11.16113281 162.82470703 C-11.16576356 161.45768602 -11.17078857 160.0906663 -11.17617798 158.72364807 C-11.18928753 155.01025391 -11.19574523 151.29687783 -11.20018864 147.58346415 C-11.20312439 145.25829611 -11.20723035 142.93313295 -11.21169281 140.60796738 C-11.22536988 133.31865847 -11.23503299 126.02936079 -11.2388947 118.74003994 C-11.24336273 110.35393369 -11.26085106 101.96799147 -11.2898953 93.58193505 C-11.31161002 87.08402148 -11.32160433 80.58615369 -11.32293582 74.08820426 C-11.32397776 70.21560025 -11.32975267 66.34315035 -11.34775543 62.47058487 C-11.36440414 58.81795497 -11.36631158 55.16559219 -11.35761642 51.51293755 C-11.35649566 49.55710254 -11.37008644 47.60127573 -11.3843689 45.64549255 C-11.31167541 29.98385845 -7.56816605 13.78487388 0 0 Z " fill="#B94836" transform="translate(456,432)"/>
<path d="M0 0 C1.64846769 0.44876616 3.29373455 0.90930488 4.9375 1.375 C5.85402344 1.63023437 6.77054687 1.88546875 7.71484375 2.1484375 C10 3 10 3 11 5 C12.88263881 5.90343684 12.88263881 5.90343684 15.0625 6.625 C15.79597656 6.88539063 16.52945312 7.14578125 17.28515625 7.4140625 C18.13400391 7.70410156 18.13400391 7.70410156 19 8 C19 8.66 19 9.32 19 10 C19.92683594 10.12117187 20.85367187 10.24234375 21.80859375 10.3671875 C23.00613281 10.53476562 24.20367188 10.70234375 25.4375 10.875 C26.63246094 11.03742187 27.82742188 11.19984375 29.05859375 11.3671875 C30.51458984 11.68042969 30.51458984 11.68042969 32 12 C32.495 12.99 32.495 12.99 33 14 C36.16245541 15.0541518 38.86948218 15.31275672 42.1875 15.5625 C43.27417969 15.64628906 44.36085938 15.73007812 45.48046875 15.81640625 C46.31191406 15.87699219 47.14335938 15.93757812 48 16 C48 16.66 48 17.32 48 18 C84.3 18 120.6 18 158 18 C158 18.33 158 18.66 158 19 C143.33411033 19.11752202 128.66828412 19.20532147 114.00201702 19.25906086 C107.19006669 19.28469166 100.37841124 19.31954665 93.56665039 19.37719727 C86.97897801 19.43292409 80.39149535 19.46151701 73.8035984 19.47438622 C71.30448432 19.48354402 68.80538476 19.50142413 66.30640221 19.52865028 C41.60046653 19.78683535 20.3941778 15.83584477 0 1 C0 0.67 0 0.34 0 0 Z " fill="#DE4A2F" transform="translate(490,679)"/>
<path d="M0 0 C0.66 0 1.32 0 2 0 C0.55922954 3.36179774 -1.24750021 5.59156268 -4 8 C-4.66 8 -5.32 8 -6 8 C-6.20625 8.53109375 -6.4125 9.0621875 -6.625 9.609375 C-8.57961192 13.00773436 -11.22123717 15.51055928 -14 18.25 C-14.5465625 18.80429687 -15.093125 19.35859375 -15.65625 19.9296875 C-19.7466133 24 -19.7466133 24 -22 24 C-22 24.66 -22 25.32 -22 26 C-23.33911133 27.31787109 -23.33911133 27.31787109 -25.26953125 28.8984375 C-31.05807117 33.8214371 -36.34177771 39.23412659 -41.6875 44.625 C-42.71655953 45.65909041 -43.74585507 46.69294602 -44.77539062 47.7265625 C-46.66772395 49.62697857 -48.5584121 51.528976 -50.44799805 53.43212891 C-52.19573086 55.19072966 -53.95152787 56.9413424 -55.71411133 58.68505859 C-57.69891313 60.69508644 -59.3776843 62.694604 -61 65 C-61.33 64.01 -61.66 63.02 -62 62 C-60.1875 58.8125 -60.1875 58.8125 -58 56 C-57.34 56 -56.68 56 -56 56 C-56 55.34 -56 54.68 -56 54 C-54.64453125 52.66796875 -54.64453125 52.66796875 -52.8125 51.1875 C-48.91555727 47.95052337 -45.27287689 44.66790766 -42.1875 40.625 C-38.57023695 36.28428434 -34.43005135 31.81001712 -29 30 C-28.30826589 28.67949777 -27.64545676 27.34372906 -27 26 C-25.76550797 24.59438516 -24.47518997 23.23685144 -23.1484375 21.91796875 C-22.37886719 21.15033203 -21.60929687 20.38269531 -20.81640625 19.59179688 C-19.60791016 18.40166992 -19.60791016 18.40166992 -18.375 17.1875 C-17.59253906 16.40568359 -16.81007813 15.62386719 -16.00390625 14.81835938 C-11.63873164 10.48576069 -7.18361617 6.31367478 -2.51806641 2.3059082 C-1.65526432 1.5636875 -0.80477295 0.80477295 0 0 Z " fill="#202020" transform="translate(1198,656)"/>
<path d="M0 0 C3.71732109 3.95541397 4.89817611 7.57628844 5.75 12.8125 C5.87503906 13.50537109 6.00007813 14.19824219 6.12890625 14.91210938 C6.43259145 16.60573839 6.71816718 18.30259781 7 20 C7.63808594 20.1134375 8.27617187 20.226875 8.93359375 20.34375 C9.61550781 20.5603125 10.29742187 20.776875 11 21 C11.70211894 22.65204456 12.36971413 24.31923769 13 26 C13.99 26.33 14.98 26.66 16 27 C15.67 29.31 15.34 31.62 15 34 C15.66 34 16.32 34 17 34 C17.66 34.66 18.32 35.32 19 36 C19.66 36.33 20.32 36.66 21 37 C21 37.66 21 38.32 21 39 C22.485 39.495 22.485 39.495 24 40 C24 40.66 24 41.32 24 42 C25.485 42.495 25.485 42.495 27 43 C26.34 43 25.68 43 25 43 C27.0041377 47.64116098 28.95955982 50.01777034 33 53 C36.29932007 56.13837762 39.21917312 59.39522442 42 63 C34.12821051 59.26482716 28.41985587 53.71617675 23 47 C22.42378906 46.29875 21.84757812 45.5975 21.25390625 44.875 C13.25480466 34.89839223 6.50083204 24.2707518 2.66015625 12.03515625 C1.98732554 9.85249201 1.98732554 9.85249201 0.8125 7.25 C-0.1052535 4.70852877 -0.15324355 2.68176217 0 0 Z " fill="#D53E29" transform="translate(448,616)"/>
<path d="M0 0 C0.99 0 1.98 0 3 0 C4.8536063 3.94579257 5.2384062 7.02900923 5.20254517 11.3717804 C5.19688034 12.65760513 5.19121552 13.94342987 5.18537903 15.26821899 C5.16885947 16.68573219 5.15214457 18.10324313 5.13525391 19.52075195 C5.12482335 21.01900154 5.11528894 22.51725759 5.10658264 24.01551819 C5.08044408 28.07718612 5.04177667 32.13864942 5.00085878 36.20019174 C4.96020647 40.44689881 4.93107768 44.69368453 4.90072632 48.94047546 C4.84151908 56.97981414 4.77194899 65.0190284 4.69865549 73.05824965 C4.61570819 82.21169785 4.54431374 91.36522475 4.47388959 100.51877654 C4.32878108 119.34596747 4.16916472 138.17301062 4 157 C3.67 157 3.34 157 3 157 C3 106.18 3 55.36 3 3 C1.68 2.34 0.36 1.68 -1 1 C-0.67 0.67 -0.34 0.34 0 0 Z " fill="#1F1F1F" transform="translate(1109,230)"/>
<path d="M0 0 C0 3 0 3 -2.15234375 5.375 C-3.07144531 6.24125 -3.99054687 7.1075 -4.9375 8 C-8.78096644 11.4734167 -8.78096644 11.4734167 -11 16 C-11.99 16 -12.98 16 -14 16 C-14.0825 16.5775 -14.165 17.155 -14.25 17.75 C-15.20143789 20.60431367 -16.89608193 21.89608193 -19 24 C-19 24.99 -19 25.98 -19 27 C-20.66666667 27 -22.33333333 27 -24 27 C-24.2475 27.639375 -24.495 28.27875 -24.75 28.9375 C-26 31 -26 31 -28.125 31.75 C-29.053125 31.87375 -29.053125 31.87375 -30 32 C-30.1546875 32.9590625 -30.1546875 32.9590625 -30.3125 33.9375 C-30.539375 34.618125 -30.76625 35.29875 -31 36 C-32.485 36.495 -32.485 36.495 -34 37 C-33.938125 37.78375 -33.87625 38.5675 -33.8125 39.375 C-33.874375 40.24125 -33.93625 41.1075 -34 42 C-37 44 -37 44 -41 44 C-42.7511573 45.4166747 -42.7511573 45.4166747 -44 47 C-44.66 46.67 -45.32 46.34 -46 46 C-30.82 30.82 -15.64 15.64 0 0 Z " fill="#300F0B" transform="translate(863,529)"/>
<path d="M0 0 C0.33 0 0.66 0 1 0 C1.43368499 11.24758668 1.79448177 22.4949989 2.06470966 33.74776745 C2.1924615 38.97429126 2.34437328 44.19767863 2.5534668 49.42163086 C2.75470005 54.47222859 2.88989546 59.52084201 2.98122215 64.57457924 C3.02714823 66.49317961 3.09605987 68.41138417 3.18929482 70.32826805 C3.93329027 86.116254 3.93329027 86.116254 -0.9671936 92.16226196 C-4.05587606 95.45972013 -7.39981143 98.27772767 -11 101 C-11 99.33333333 -11 97.66666667 -11 96 C-9.33720673 94.9935725 -7.67016516 93.99414593 -6 93 C-5.34 92.01 -4.68 91.02 -4 90 C-3.34 90 -2.68 90 -2 90 C-2 89.01 -2 88.02 -2 87 C-1.34 87 -0.68 87 0 87 C0 58.29 0 29.58 0 0 Z " fill="#F16023" transform="translate(895,408)"/>
<path d="M0 0 C0.66 0.33 1.32 0.66 2 1 C1.34 1.99 0.68 2.98 0 4 C-0.99 4 -1.98 4 -3 4 C-3 4.99 -3 5.98 -3 7 C-3.99 7.495 -3.99 7.495 -5 8 C-5.268125 8.639375 -5.53625 9.27875 -5.8125 9.9375 C-7.40906095 12.71047429 -9.06096664 12.83805658 -12 14 C-15.45241633 17.04141439 -17.68161738 20.06882948 -20 24 C-20.680625 24.66 -21.36125 25.32 -22.0625 26 C-24.16450109 27.914349 -24.16450109 27.914349 -25.0625 30.6875 C-25.5265625 31.8321875 -25.5265625 31.8321875 -26 33 C-27.485 33.495 -27.485 33.495 -29 34 C-29.73323796 36.01508358 -29.73323796 36.01508358 -30 38 C-30.66 38 -31.32 38 -32 38 C-30.78065514 33.96678237 -29.44045073 30.45730521 -27 27 C-26.34 27 -25.68 27 -25 27 C-24.7525 26.27425781 -24.505 25.54851562 -24.25 24.80078125 C-22.87572546 21.72154736 -21.25344071 19.68533961 -19 17.1875 C-17.948125 16.00220703 -17.948125 16.00220703 -16.875 14.79296875 C-15 13 -15 13 -13 13 C-12.67 12.01 -12.34 11.02 -12 10 C-11.34 10 -10.68 10 -10 10 C-9.75507813 9.40703125 -9.51015625 8.8140625 -9.2578125 8.203125 C-7.79047891 5.63301274 -6.27707775 4.45470034 -3.875 2.75 C-3.15054687 2.22921875 -2.42609375 1.7084375 -1.6796875 1.171875 C-1.12539063 0.78515625 -0.57109375 0.3984375 0 0 Z " fill="#D24A2F" transform="translate(489,394)"/>
<path d="M0 0 C1.64846769 0.44876616 3.29373455 0.90930488 4.9375 1.375 C5.85402344 1.63023437 6.77054687 1.88546875 7.71484375 2.1484375 C10 3 10 3 11 5 C12.88263881 5.90343684 12.88263881 5.90343684 15.0625 6.625 C15.79597656 6.88539063 16.52945312 7.14578125 17.28515625 7.4140625 C18.13400391 7.70410156 18.13400391 7.70410156 19 8 C19 8.66 19 9.32 19 10 C19.92683594 10.12117187 20.85367187 10.24234375 21.80859375 10.3671875 C23.00613281 10.53476562 24.20367188 10.70234375 25.4375 10.875 C26.63246094 11.03742187 27.82742188 11.19984375 29.05859375 11.3671875 C30.51458984 11.68042969 30.51458984 11.68042969 32 12 C32.495 12.99 32.495 12.99 33 14 C36.16245541 15.0541518 38.86948218 15.31275672 42.1875 15.5625 C43.27417969 15.64628906 44.36085938 15.73007812 45.48046875 15.81640625 C46.31191406 15.87699219 47.14335938 15.93757812 48 16 C48 16.66 48 17.32 48 18 C48.66 18.33 49.32 18.66 50 19 C44.27728052 19.25942995 39.39001995 18.36642024 33.875 16.875 C33.0396875 16.65054199 32.204375 16.42608398 31.34375 16.19482422 C19.95842371 13.00912234 9.5909065 7.97695202 0 1 C0 0.67 0 0.34 0 0 Z " fill="#C53D2B" transform="translate(490,679)"/>
<path d="M0 0 C5.28 0 10.56 0 16 0 C10.13043478 7.04347826 10.13043478 7.04347826 6 9 C5.01 9 4.02 9 3 9 C3 9.99 3 10.98 3 12 C2.34 12 1.68 12 1 12 C-0.82089479 8.35821043 -0.05121113 3.99446852 0 0 Z " fill="#FA511F" transform="translate(848,528)"/>
<path d="M0 0 C1.73286146 3.13848728 2.62374548 6.14010776 3.4375 9.625 C4.40457201 13.60020051 5.38447652 17.56354542 6.5 21.5 C6.7165625 22.2734375 6.933125 23.046875 7.15625 23.84375 C8.10182814 26.26022746 9.40405251 27.96686477 11 30 C11.68132451 31.66072849 12.34742127 33.327767 13 35 C13.53625 35.886875 14.0725 36.77375 14.625 37.6875 C16 40 16 40 16 42 C15.34 42 14.68 42 14 42 C10.71919558 37.79646933 9.2207518 34.08646583 8 29 C7.34 29 6.68 29 6 29 C5.32815382 26.89748139 4.66269032 24.79292237 4 22.6875 C3.443125 20.92986328 3.443125 20.92986328 2.875 19.13671875 C2 16 2 16 2 13 C1.34 13 0.68 13 0 13 C-1.36421031 10.27157939 -0.87807211 8.39046682 -0.5625 5.375 C-0.40974609 3.87066406 -0.40974609 3.87066406 -0.25390625 2.3359375 C-0.17011719 1.56507813 -0.08632813 0.79421875 0 0 Z " fill="#4B1009" transform="translate(445,608)"/>
<path d="M0 0 C0.33 0 0.66 0 1 0 C1.33 28.71 1.66 57.42 2 87 C2.66 87.33 3.32 87.66 4 88 C4 88.66 4 89.32 4 90 C2.35 90 0.7 90 -1 90 C-0.67 60.3 -0.34 30.6 0 0 Z " fill="#E25430" transform="translate(782,504)"/>
<path d="M0 0 C0.33 0.66 0.66 1.32 1 2 C-1.28769789 6.57539579 -4.08702471 9.92686752 -8.5625 12.4375 C-11.40936649 14.26241442 -12.44272512 16.04117772 -14 19 C-14.33 19.33 -14.66 19.66 -15 20 C-14.34 20.33 -13.68 20.66 -13 21 C-13.33 22.32 -13.66 23.64 -14 25 C-14.99 25 -15.98 25 -17 25 C-17 24.01 -17 23.02 -17 22 C-18.11375 22.680625 -18.11375 22.680625 -19.25 23.375 C-21.46930578 24.68640796 -23.67967822 25.88280803 -26 27 C-26 26.34 -26 25.68 -26 25 C-24.58398438 23.60522461 -24.58398438 23.60522461 -22.59375 21.96484375 C-17.63418911 17.74768627 -13.07671635 13.18766693 -8.5 8.5625 C-7.26636719 7.32209961 -7.26636719 7.32209961 -6.0078125 6.05664062 C-4.00287887 4.04005041 -2.00033747 2.02114764 0 0 Z " fill="#3B1508" transform="translate(891,501)"/>
<path d="M0 0 C2.01474498 0 4.02863522 0.1181687 6.0390625 0.25 C-2.53508199 10.49714829 -2.53508199 10.49714829 -6.9609375 14.25 C-7.6209375 14.25 -8.2809375 14.25 -8.9609375 14.25 C-9.2909375 14.91 -9.6209375 15.57 -9.9609375 16.25 C-10.39710771 11.01595745 -10.39710771 11.01595745 -9.9609375 8.25 C-7.6484375 6 -7.6484375 6 -4.9609375 4.25 C-4.5278125 3.5075 -4.0946875 2.765 -3.6484375 2 C-1.9609375 0.25 -1.9609375 0.25 0 0 Z " fill="#E85526" transform="translate(873.9609375,511.75)"/>
<path d="M0 0 C0 3.82716898 -1.47112904 4.83206538 -4.0652771 7.45646667 C-4.64959503 8.03157486 -5.23391296 8.60668304 -5.8359375 9.19921875 C-6.43048737 9.79426712 -7.02503723 10.38931549 -7.63760376 11.00239563 C-8.8967406 12.25919069 -10.15957498 13.5122905 -11.42578125 14.76196289 C-13.36896569 16.68153901 -15.29847703 18.61409917 -17.2265625 20.54882812 C-18.44973015 21.76641982 -19.67366305 22.98324335 -20.8984375 24.19921875 C-21.47870697 24.78039963 -22.05897644 25.36158051 -22.65682983 25.96037292 C-26.76898927 30 -26.76898927 30 -29 30 C-29 30.66 -29 31.32 -29 32 C-30.485 32.495 -30.485 32.495 -32 33 C-30.48391249 29.14086816 -28.19933595 27.54492632 -25 25 C-23.43994658 23.28394124 -21.95950319 21.51402811 -20.47265625 19.734375 C-17.71894952 16.49128272 -14.78974052 13.61638284 -11.4375 11 C-8.87438268 9.03976682 -8.87438268 9.03976682 -6.8125 6.25 C-5.9153125 5.13625 -5.9153125 5.13625 -5 4 C-4.34 4 -3.68 4 -3 4 C-3 3.34 -3 2.68 -3 2 C-2.01 1.34 -1.02 0.68 0 0 Z " fill="#1F1F1F" transform="translate(1504,359)"/>
<path d="M0 0 C-7.7162907 5.1441938 -17.95233889 6.62199951 -27 8 C-27.33 8.99 -27.66 9.98 -28 11 C-31.93275129 12.36133698 -35.90892832 13.25616878 -40 14 C-37.26316897 10.61497215 -33.52532865 9.22407293 -29.625 7.5625 C-28.91472656 7.25755615 -28.20445312 6.9526123 -27.47265625 6.63842773 C-18.56031092 2.88475993 -9.81175587 -0.76954948 0 0 Z " fill="#C54F2D" transform="translate(536,377)"/>
<path d="M0 0 C3.35185425 0.58114461 6.21114194 1.42983415 9.3125 2.8125 C13.8602856 4.68351089 18.42631836 6.00173983 23.1875 7.1875 C23.85241455 7.35419189 24.5173291 7.52088379 25.20239258 7.69262695 C29.45668455 8.72145647 33.66566336 9.44345094 38 10 C38 10.33 38 10.66 38 11 C23.52427184 11.26213592 23.52427184 11.26213592 17 8 C15.783125 7.835 14.56625 7.67 13.3125 7.5 C12.219375 7.335 11.12625 7.17 10 7 C9.67 6.34 9.34 5.68 9 5 C7.14759836 4.16952992 7.14759836 4.16952992 5 3.5 C2.8125 2.78125 2.8125 2.78125 1 2 C0.67 1.34 0.34 0.68 0 0 Z " fill="#3E1507" transform="translate(502,688)"/>
<path d="M0 0 C0.66 0.33 1.32 0.66 2 1 C-4.27 7.27 -10.54 13.54 -17 20 C-17 17.37886292 -16.68707555 15.49064888 -16 13 C-15.34 13 -14.68 13 -14 13 C-13.67 12.01 -13.34 11.02 -13 10 C-10.9375 9.3125 -10.9375 9.3125 -9 9 C-9 8.34 -9 7.68 -9 7 C-7.68 6.67 -6.36 6.34 -5 6 C-5 5.01 -5 4.02 -5 3 C-2.625 1.25 -2.625 1.25 0 0 Z " fill="#DA512D" transform="translate(856,534)"/>
<path d="M0 0 C-1.02738281 0.4846875 -2.05476563 0.969375 -3.11328125 1.46875 C-11.7505934 5.62034008 -19.476007 10.00631066 -27 16 C-27.33 15.01 -27.66 14.02 -28 13 C-27.195625 12.773125 -26.39125 12.54625 -25.5625 12.3125 C-24.716875 11.879375 -23.87125 11.44625 -23 11 C-22.10613836 8.45224694 -22.10613836 8.45224694 -22 6 C-21.67 6.66 -21.34 7.32 -21 8 C-19.576875 7.1646875 -19.576875 7.1646875 -18.125 6.3125 C-15.04084669 4.56627878 -11.94362391 2.84815535 -8.8125 1.1875 C-7.99394531 0.74792969 -7.17539062 0.30835938 -6.33203125 -0.14453125 C-3.71065335 -1.10614224 -2.57393881 -0.96448742 0 0 Z " fill="#3B0E06" transform="translate(510,384)"/>
<path d="M0 0 C1.16406323 1.16406323 2.32754865 2.32870939 3.48828125 3.49609375 C4.53794602 4.5403339 5.59871848 5.57347976 6.66796875 6.59765625 C8.14814809 8.02861348 9.57767678 9.51152221 11 11 C11 11.66 11 12.32 11 13 C11.5775 13.2475 12.155 13.495 12.75 13.75 C15.3002997 15.16683317 17.01785701 16.87627537 19 19 C15.06520655 17.86328189 12.85333924 16.85333924 10 14 C8.68 14 7.36 14 6 14 C5.67 11.69 5.34 9.38 5 7 C3.35 6.67 1.7 6.34 0 6 C0 4.02 0 2.04 0 0 Z " fill="#3F120A" transform="translate(467,658)"/>
<path d="M0 0 C0.66 0.66 1.32 1.32 2 2 C3.32 1.34 4.64 0.68 6 0 C7.125 6.75 7.125 6.75 6 9 C0.33289301 7.68206814 -1.66437233 5.51290803 -5 1 C-3 0 -3 0 0 0 Z " fill="#F03A1C" transform="translate(490,672)"/>
<path d="M0 0 C0.99 0.33 1.98 0.66 3 1 C-3.27 7.27 -9.54 13.54 -16 20 C-16.33 18.68 -16.66 17.36 -17 16 C-16.34 15.34 -15.68 14.68 -15 14 C-14.01 14 -13.02 14 -12 14 C-11.8453125 13.1028125 -11.8453125 13.1028125 -11.6875 12.1875 C-10.57824943 8.65806636 -8.65650773 7.37749195 -5.5 5.5625 C-2.93924923 3.96203077 -1.63952686 2.50243574 0 0 Z " fill="#CC4B2E" transform="translate(824,565)"/>
<path d="M0 0 C0.81386266 2.32826534 1.18881594 3.52696638 0.2578125 5.859375 C-0.11601562 6.48328125 -0.48984375 7.1071875 -0.875 7.75 C-2.45666517 10.64881979 -3.28246306 12.89551016 -3.5625 16.1875 C-4.01485714 20.1294694 -4.97381056 21.70744216 -7 25 C-7.71923208 28.69523952 -7.71923208 28.69523952 -8 32 C-8.33 32 -8.66 32 -9 32 C-9.23495495 26.15223234 -8.604624 21.53098145 -6.75 16 C-6.52546143 15.30519531 -6.30092285 14.61039062 -6.06958008 13.89453125 C-4.45033844 9.01333907 -2.52588529 4.49046275 0 0 Z " fill="#C64931" transform="translate(456,432)"/>
<path d="M0 0 C0.33 0 0.66 0 1 0 C1 10.89 1 21.78 1 33 C0.34 33 -0.32 33 -1 33 C-1.33 34.32 -1.66 35.64 -2 37 C-3.32 36.67 -4.64 36.34 -6 36 C-5.18958252 35.32493408 -4.37916504 34.64986816 -3.54418945 33.9543457 C-0.39128304 30.29315 -0.35188411 28.50261254 -0.29296875 23.73046875 C-0.27784744 23.04946609 -0.26272614 22.36846344 -0.24714661 21.66682434 C-0.20439922 19.50670937 -0.19544565 17.34799507 -0.1875 15.1875 C-0.16434511 13.71675998 -0.13897769 12.24605302 -0.11132812 10.77539062 C-0.0486084 7.18362029 -0.01616875 3.59231596 0 0 Z " fill="#2C0905" transform="translate(898,464)"/>
<path d="M0 0 C0.66 0 1.32 0 2 0 C2.33 0.99 2.66 1.98 3 3 C3.66 2.34 4.32 1.68 5 1 C4.979375 2.0725 4.95875 3.145 4.9375 4.25 C4.98092387 8.23645057 4.98092387 8.23645057 6 12 C6.66 12.33 7.32 12.66 8 13 C7.67 15.31 7.34 17.62 7 20 C4.33313647 16.9116703 3.51128006 14.57896039 2.9375 10.5625 C2.3816169 6.75602429 1.54416935 3.53044529 0 0 Z " fill="#EF371D" transform="translate(449,616)"/>
<path d="M0 0 C0.66 0.33 1.32 0.66 2 1 C-3.61 6.61 -9.22 12.22 -15 18 C-15.33 16.68 -15.66 15.36 -16 14 C-15.34 14 -14.68 14 -14 14 C-14 13.34 -14 12.68 -14 12 C-12.68 11.67 -11.36 11.34 -10 11 C-10 10.34 -10 9.68 -10 9 C-7.625 6.375 -7.625 6.375 -5 4 C-4.34 4 -3.68 4 -3 4 C-3 3.34 -3 2.68 -3 2 C-2.01 1.34 -1.02 0.68 0 0 Z " fill="#DD5030" transform="translate(802,587)"/>
<path d="M0 0 C0.66 0.33 1.32 0.66 2 1 C1.34 1.66 0.68 2.32 0 3 C0.66 3.33 1.32 3.66 2 4 C1.67 5.32 1.34 6.64 1 8 C0.01 8 -0.98 8 -2 8 C-2 7.01 -2 6.02 -2 5 C-2.7425 5.45375 -3.485 5.9075 -4.25 6.375 C-6.46930578 7.68640796 -8.67967822 8.88280803 -11 10 C-11 8 -11 8 -9.35546875 6.30859375 C-8.28232422 5.38240234 -8.28232422 5.38240234 -7.1875 4.4375 C-6.47980469 3.81746094 -5.77210938 3.19742188 -5.04296875 2.55859375 C-3 1 -3 1 0 0 Z " fill="#2F140E" transform="translate(876,518)"/>
<path d="M0 0 C0.66 0.33 1.32 0.66 2 1 C2 1.99 2 2.98 2 4 C1.01 4 0.02 4 -1 4 C-1.268125 4.598125 -1.53625 5.19625 -1.8125 5.8125 C-2.99917406 7.99847854 -4.09599113 9.41332594 -6 11 C-6.66 11 -7.32 11 -8 11 C-8.33 9.68 -8.66 8.36 -9 7 C-7.88625 6.38125 -7.88625 6.38125 -6.75 5.75 C-4.09828315 4.06254382 -2.13325986 2.29127911 0 0 Z " fill="#F7481B" transform="translate(825,561)"/>
<path d="M0 0 C0.99 0.33 1.98 0.66 3 1 C3.66666667 2.66666667 4.33333333 4.33333333 5 6 C5.99 6.33 6.98 6.66 8 7 C7.67 8.98 7.34 10.96 7 13 C6.67 12.01 6.34 11.02 6 10 C5.01 10 4.02 10 3 10 C0.46705458 7.56086737 0.01732447 6.30029087 -0.1875 2.75 C-0.125625 1.8425 -0.06375 0.935 0 0 Z " fill="#E63823" transform="translate(456,636)"/>
<path d="M0 0 C0.99 0.33 1.98 0.66 3 1 C2.360625 1.78375 1.72125 2.5675 1.0625 3.375 C-0.98142313 5.79539281 -0.98142313 5.79539281 -2 8 C-2.66 8 -3.32 8 -4 8 C-4.0825 8.515625 -4.165 9.03125 -4.25 9.5625 C-5.32140225 13.04455732 -7.13523605 15.87200885 -9 19 C-10.32709834 15.98386742 -9.92457017 14.76951997 -8.875 11.5625 C-7.22077867 8.00249374 -4.88361739 5.66180067 -2 3 C-1.34 2.01 -0.68 1.02 0 0 Z " fill="#3E1005" transform="translate(466,413)"/>
<path d="M0 0 C1.63001953 0.01353516 1.63001953 0.01353516 3.29296875 0.02734375 C4.12441406 0.03894531 4.95585938 0.05054688 5.8125 0.0625 C5.8125 1.0525 5.8125 2.0425 5.8125 3.0625 C3.87530622 3.11656122 1.93768079 3.15532025 0 3.1875 C-1.07894531 3.21070313 -2.15789063 3.23390625 -3.26953125 3.2578125 C-6.1875 3.0625 -6.1875 3.0625 -9.1875 1.0625 C-5.90230525 -0.03256492 -3.45086585 -0.03710608 0 0 Z " fill="#FB4817" transform="translate(538.1875,378.9375)"/>
<path d="M0 0 C5.28 0 10.56 0 16 0 C15 2 15 2 12.71484375 2.8515625 C11.79832031 3.10679687 10.88179687 3.36203125 9.9375 3.625 C8.55884766 4.01558594 8.55884766 4.01558594 7.15234375 4.4140625 C6.44207031 4.60742188 5.73179687 4.80078125 5 5 C5 4.34 5 3.68 5 3 C4.34 3 3.68 3 3 3 C3 2.34 3 1.68 3 1 C2.01 0.67 1.02 0.34 0 0 Z " fill="#F9591A" transform="translate(653,377)"/>
<path d="M0 0 C5.61 0 11.22 0 17 0 C17 0.33 17 0.66 17 1 C15.4840625 1.185625 15.4840625 1.185625 13.9375 1.375 C10.16271004 1.97417301 6.66641416 2.94238053 3 4 C2.01 4 1.02 4 0 4 C0 2.68 0 1.36 0 0 Z " fill="#F56026" transform="translate(671,283)"/>
<path d="M0 0 C0.33 0 0.66 0 1 0 C1.56561146 5.65611463 -0.28608722 9.22642128 -3 14 C-4.09658936 10.71023192 -3.79953138 9.28696233 -3 6 C-3.66 6 -4.32 6 -5 6 C-4.67 4.35 -4.34 2.7 -4 1 C-2.68 1.99 -1.36 2.98 0 4 C0 2.68 0 1.36 0 0 Z " fill="#2C130E" transform="translate(455,428)"/>
<path d="M0 0 C2.83597257 5.57971839 3.10375377 9.77477369 3 16 C2.67 15.01 2.34 14.02 2 13 C1.34 13 0.68 13 0 13 C-1.36421031 10.27157939 -0.87807211 8.39046682 -0.5625 5.375 C-0.40974609 3.87066406 -0.40974609 3.87066406 -0.25390625 2.3359375 C-0.17011719 1.56507813 -0.08632813 0.79421875 0 0 Z " fill="#35120B" transform="translate(445,608)"/>
<path d="M0 0 C-3.3 3.3 -6.6 6.6 -10 10 C-10.33 9.01 -10.66 8.02 -11 7 C-10.34 6.01 -9.68 5.02 -9 4 C-8.34 4 -7.68 4 -7 4 C-6.8453125 3.0409375 -6.8453125 3.0409375 -6.6875 2.0625 C-6.460625 1.381875 -6.23375 0.70125 -6 0 C-3 -1 -3 -1 0 0 Z " fill="#D34E2C" transform="translate(838,555)"/>
<path d="M0 0 C0 3 0 3 -1.49609375 4.75390625 C-2.45708984 5.64916016 -2.45708984 5.64916016 -3.4375 6.5625 C-6.0896163 9.00289429 -6.0896163 9.00289429 -8 12 C-8.66 12 -9.32 12 -10 12 C-10 12.66 -10 13.32 -10 14 C-11.32 13.67 -12.64 13.34 -14 13 C-12.625 11.5 -12.625 11.5 -11 10 C-10.34 10 -9.68 10 -9 10 C-9 9.34 -9 8.68 -9 8 C-7.28515625 6.30859375 -7.28515625 6.30859375 -5.0625 4.4375 C-4.33160156 3.81746094 -3.60070312 3.19742188 -2.84765625 2.55859375 C-1.93306641 1.78708984 -1.93306641 1.78708984 -1 1 C-0.67 0.67 -0.34 0.34 0 0 Z " fill="#3E1006" transform="translate(815,577)"/>
<path d="M0 0 C0 3 0 3 -2.15234375 5.375 C-3.07144531 6.24125 -3.99054687 7.1075 -4.9375 8 C-8.78096644 11.4734167 -8.78096644 11.4734167 -11 16 C-12.32 15.67 -13.64 15.34 -15 15 C-10.05 10.05 -5.1 5.1 0 0 Z " fill="#390C02" transform="translate(863,529)"/>
<path d="M0 0 C0.73605469 0.47050781 1.47210938 0.94101562 2.23046875 1.42578125 C3.20628906 2.04839844 4.18210937 2.67101562 5.1875 3.3125 C6.15042969 3.92738281 7.11335938 4.54226563 8.10546875 5.17578125 C10.71634303 6.82123103 13.3469602 8.42369665 16 10 C15.01 10.33 14.02 10.66 13 11 C10.87890625 9.8203125 10.87890625 9.8203125 8.5625 8.125 C5.70379015 6.04505882 3.50433469 4.62263805 0 4 C0 2.68 0 1.36 0 0 Z " fill="#390F06" transform="translate(486,677)"/>
<path d="M0 0 C0.99 0.33 1.98 0.66 3 1 C-0.9419417 5.88049925 -5.11950075 10.0580583 -10 14 C-9.8125 11.6875 -9.8125 11.6875 -9 9 C-6.5625 7.375 -6.5625 7.375 -4 6 C-3.34 5.01 -2.68 4.02 -2 3 C-1.34 3 -0.68 3 0 3 C0 2.01 0 1.02 0 0 Z " fill="#D35C32" transform="translate(893,495)"/>
<path d="M0 0 C0.99 0 1.98 0 3 0 C4.125 4.75 4.125 4.75 3 7 C1.68 7 0.36 7 -1 7 C-2 4 -2 4 -1.0625 1.8125 C-0.5365625 0.9153125 -0.5365625 0.9153125 0 0 Z " fill="#F14922" transform="translate(803,580)"/>
<path d="M0 0 C3.66172475 0.62678171 6.8818995 1.64451846 10.3125 3.0625 C11.19550781 3.42472656 12.07851563 3.78695312 12.98828125 4.16015625 C13.65214844 4.43730469 14.31601562 4.71445312 15 5 C15 5.66 15 6.32 15 7 C13.35 7 11.7 7 10 7 C9.67 6.34 9.34 5.68 9 5 C7.14759836 4.16952992 7.14759836 4.16952992 5 3.5 C2.8125 2.78125 2.8125 2.78125 1 2 C0.67 1.34 0.34 0.68 0 0 Z " fill="#360D03" transform="translate(502,688)"/>
<path d="M0 0 C0.66 0.33 1.32 0.66 2 1 C1.64505955 3.62655933 1.27538036 5.57968261 -0.1875 7.8125 C-2.79361661 9.51995571 -4.9599355 9.20267097 -8 9 C-7.01 8.34 -6.02 7.68 -5 7 C-4.2265625 6.195625 -4.2265625 6.195625 -3.4375 5.375 C-2 4 -2 4 0 4 C0 2.68 0 1.36 0 0 Z " fill="#242424" transform="translate(1112,684)"/>
<path d="M0 0 C-0.33 0.99 -0.66 1.98 -1 3 C-2.98 3 -4.96 3 -7 3 C-7 2.34 -7 1.68 -7 1 C-9.31 1 -11.62 1 -14 1 C-14 0.67 -14 0.34 -14 0 C-12.04235617 -0.19456705 -10.08384679 -0.38044247 -8.125 -0.5625 C-6.48917969 -0.71912109 -6.48917969 -0.71912109 -4.8203125 -0.87890625 C-2 -1 -2 -1 0 0 Z " fill="#F0501C" transform="translate(782,595)"/>
<path d="M0 0 C-0.33 1.32 -0.66 2.64 -1 4 C-2.98 4.33 -4.96 4.66 -7 5 C-7 4.01 -7 3.02 -7 2 C-4 0 -4 0 0 0 Z " fill="#1D1717" transform="translate(894,506)"/>
<path d="M0 0 C0.66 0.33 1.32 0.66 2 1 C1.01 2.485 1.01 2.485 0 4 C-0.99 4 -1.98 4 -3 4 C-3 4.99 -3 5.98 -3 7 C-5.31 7.66 -7.62 8.32 -10 9 C-6.83047153 5.73991357 -3.60062011 2.77762123 0 0 Z " fill="#C0472D" transform="translate(489,394)"/>
<path d="M0 0 C0.8971875 0.309375 0.8971875 0.309375 1.8125 0.625 C1.4825 1.615 1.1525 2.605 0.8125 3.625 C-1.03515625 4.35546875 -1.03515625 4.35546875 -3.25 4.8125 C-3.98347656 4.97105469 -4.71695312 5.12960937 -5.47265625 5.29296875 C-6.32150391 5.45732422 -6.32150391 5.45732422 -7.1875 5.625 C-5.69046729 2.17030914 -4.27938051 -0.73360809 0 0 Z " fill="#E14A26" transform="translate(496.1875,391.375)"/>
<path d="M0 0 C2.875 -0.1875 2.875 -0.1875 6 0 C6.66 0.99 7.32 1.98 8 3 C5.03 3 2.06 3 -1 3 C-0.67 2.01 -0.34 1.02 0 0 Z " fill="#1D1D1D" transform="translate(945,691)"/>
<path d="M0 0 C7.48291572 6.15034169 7.48291572 6.15034169 10 10 C6.96147295 8.59023295 4.4060405 6.91129772 1.75 4.875 C1.04359375 4.33617187 0.3371875 3.79734375 -0.390625 3.2421875 C-0.92171875 2.83226562 -1.4528125 2.42234375 -2 2 C-1.34 1.34 -0.68 0.68 0 0 Z " fill="#C23F2F" transform="translate(480,669)"/>
<path d="M0 0 C0.33 0.99 0.66 1.98 1 3 C-0.9375 5.6875 -0.9375 5.6875 -3 8 C-4.32 7.67 -5.64 7.34 -7 7 C-4.69 4.69 -2.38 2.38 0 0 Z " fill="#48120A" transform="translate(797,594)"/>
<path d="M0 0 C-0.33 1.32 -0.66 2.64 -1 4 C-2.65 4 -4.3 4 -6 4 C-6.33 3.01 -6.66 2.02 -7 1 C-4 0 -4 0 0 0 Z " fill="#FA3D27" transform="translate(552,598)"/>
<path d="M0 0 C0.66 0.99 1.32 1.98 2 3 C-0.57784846 5.64752004 -2.91648098 7.94432065 -6 10 C-6 9.01 -6 8.02 -6 7 C-4.7934375 6.6596875 -4.7934375 6.6596875 -3.5625 6.3125 C-2.716875 5.879375 -1.87125 5.44625 -1 5 C-0.10613836 2.45224694 -0.10613836 2.45224694 0 0 Z " fill="#2F120C" transform="translate(488,390)"/>
<path d="M0 0 C0.66 0.33 1.32 0.66 2 1 C-0.64 3.64 -3.28 6.28 -6 9 C-6.33 8.01 -6.66 7.02 -7 6 C-6.34 6 -5.68 6 -5 6 C-5 5.01 -5 4.02 -5 3 C-2.625 1.25 -2.625 1.25 0 0 Z " fill="#C54D2F" transform="translate(856,534)"/>
<path d="M0 0 C2.72574271 0.37330824 3.80822085 0.79194601 5.703125 2.84765625 C6.21359375 3.57855469 6.7240625 4.30945313 7.25 5.0625 C8.03117187 6.16271484 8.03117187 6.16271484 8.828125 7.28515625 C9.21484375 7.85105469 9.6015625 8.41695312 10 9 C6.78956118 7.61811547 4.95063635 6.07578097 2.75 3.375 C2.22921875 2.74335937 1.7084375 2.11171875 1.171875 1.4609375 C0.78515625 0.97882812 0.3984375 0.49671875 0 0 Z " fill="#D34732" transform="translate(470,661)"/>
<path d="M0 0 C1.98 0 3.96 0 6 0 C4.35830472 2.02054804 2.69088222 4.02043058 1 6 C0.67 6 0.34 6 0 6 C0 4.02 0 2.04 0 0 Z " fill="#D6552C" transform="translate(858,528)"/>
<path d="M0 0 C1.98 0 3.96 0 6 0 C6 0.99 6 1.98 6 3 C4.02 3 2.04 3 0 3 C0 2.01 0 1.02 0 0 Z " fill="#F74E10" transform="translate(538,379)"/>
<path d="M0 0 C1.65 0.33 3.3 0.66 5 1 C4.01 2.485 4.01 2.485 3 4 C1.68 3.67 0.36 3.34 -1 3 C-0.67 2.01 -0.34 1.02 0 0 Z " fill="#FA4913" transform="translate(503,388)"/>
<path d="M0 0 C2.66735273 2.48952921 4.55746343 4.63408134 6 8 C5.01 8 4.02 8 3 8 C2.67 7.01 2.34 6.02 2 5 C1.34 4.67 0.68 4.34 0 4 C0 2.68 0 1.36 0 0 Z " fill="#4D100A" transform="translate(461,650)"/>
<path d="M0 0 C-5.41538462 3.07692308 -5.41538462 3.07692308 -8.375 2.6875 C-9.179375 2.3471875 -9.179375 2.3471875 -10 2 C-3.72972973 -1.24324324 -3.72972973 -1.24324324 0 0 Z " fill="#17191A" transform="translate(502,386)"/>
<path d="M0 0 C-0.99 0.33 -1.98 0.66 -3 1 C-2.67 1.66 -2.34 2.32 -2 3 C-3.98 3.33 -5.96 3.66 -8 4 C-5.97675095 -0.48005146 -4.79569304 -1.43870791 0 0 Z " fill="#19100A" transform="translate(512,380)"/>
</svg>
